<?xml version="1.0" encoding="UTF-8" standalone="no"?>
<svg
   xmlns:dc="http://purl.org/dc/elements/1.1/"
   xmlns:cc="http://creativecommons.org/ns#"
   xmlns:rdf="http://www.w3.org/1999/02/22-rdf-syntax-ns#"
   xmlns:svg="http://www.w3.org/2000/svg"
   xmlns="http://www.w3.org/2000/svg"
   xmlns:sodipodi="http://sodipodi.sourceforge.net/DTD/sodipodi-0.dtd"
   xmlns:inkscape="http://www.inkscape.org/namespaces/inkscape"
   version="1.1"
   id="Layer_1"
   x="0px"
   y="0px"
   viewBox="0 0 91.213706 91.213719"
   xml:space="preserve"
   width="199.98738"
   height="199.98741"
   class=""
   sodipodi:docname="bar-chart.svg"
   inkscape:version="0.92.3 (2405546, 2018-03-11)"><metadata
   id="metadata73"><rdf:RDF><cc:Work
       rdf:about=""><dc:format>image/svg+xml</dc:format><dc:type
         rdf:resource="http://purl.org/dc/dcmitype/StillImage" /><dc:title></dc:title></cc:Work></rdf:RDF></metadata><defs
   id="defs71" /><sodipodi:namedview
   pagecolor="#ffffff"
   bordercolor="#666666"
   borderopacity="1"
   objecttolerance="10"
   gridtolerance="10"
   guidetolerance="10"
   inkscape:pageopacity="0"
   inkscape:pageshadow="2"
   inkscape:window-width="1920"
   inkscape:window-height="1052"
   id="namedview69"
   showgrid="false"
   fit-margin-top="0.1"
   fit-margin-left="0.1"
   fit-margin-right="0.1"
   fit-margin-bottom="0.1"
   inkscape:zoom="2.2175"
   inkscape:cx="-11.820073"
   inkscape:cy="78.123302"
   inkscape:window-x="2560"
   inkscape:window-y="0"
   inkscape:window-maximized="1"
   inkscape:current-layer="g66" /><g
   id="g66"
   transform="translate(-35.568909,-144.56139)"><path
     style="fill:none;stroke:#000000;stroke-width:0.62341088;stroke-miterlimit:4;stroke-dasharray:none;stroke-opacity:1"
     d="m 35.926224,190.16826 c 0,-24.98665 20.262892,-45.24955 45.249539,-45.24955 24.986637,0 45.249537,20.2629 45.249537,45.24955 0,24.98663 -20.2629,45.24954 -45.249537,45.24954 -24.986647,0 -45.249539,-20.26291 -45.249539,-45.24954 z"
     data-original="#F26101"
     class="active-path"
     data-old_color="#F26101"
     id="path2"
     inkscape:connector-curvature="0" /><g
     style="opacity:1;fill:#000000;fill-opacity:1"
     id="g6"
     transform="matrix(0.2144205,0,0,0.2144205,27.978035,136.97053)">
	<path
   style="fill:#000000;fill-opacity:1"
   d="M 132.1,365.5 V 102.9 h -9.3 v 29.6 h -12.3 v 9.8 h 12.3 v 19.4 h -12.3 v 9.7 h 12.3 v 19.4 h -12.3 v 9.8 h 12.3 v 19.5 h -12.3 v 9.8 h 12.3 v 19.4 h -12.3 v 9.8 h 12.3 v 19.4 h -12.3 v 9.7 h 12.3 v 19.4 h -12.3 v 9.8 h 12.3 v 19.4 h -12.3 v 9.8 h 12.3 v 18.9 H 101 v 9.3 h 21.8 v 22.5 h 9.3 v -22.5 h 19.5 v 12.3 h 9.8 v -12.3 h 19.4 v 12.3 h 9.8 V 374.8 H 210 v 12.3 h 9.8 v -12.3 h 19.3 v 12.3 h 9.8 v -12.3 h 19.4 v 12.3 h 9.8 v -12.3 h 19.4 v 12.3 h 9.7 v -12.3 h 19.4 v 12.3 h 9.8 v -12.3 h 19.4 v 12.3 h 9.8 v -12.3 h 29.7 v -9.3 z"
   data-original="#BF4602"
   id="path4"
   inkscape:connector-curvature="0" />
</g><path
     style="fill:none;fill-opacity:1;stroke-width:0.2144205"
     d="m 56.302983,214.50498 v -56.30682 h -1.994109 v 6.34685 h -2.637372 v 2.10132 h 2.637372 v 4.15976 h -2.637372 v 2.07987 h 2.637372 v 4.15976 h -2.637372 v 2.10132 h 2.637372 v 4.15975 h -2.637372 v 2.10132 h 2.637372 v 4.15977 h -2.637372 v 2.10132 h 2.637372 v 4.15976 h -2.637372 v 2.07987 h 2.637372 v 4.15976 h -2.637372 v 2.10132 h 2.637372 v 4.15977 h -2.637372 v 2.10131 h 2.637372 v 4.05255 h -4.674368 v 1.99412 h 4.674368 v 4.82445 h 1.994109 v -4.82445 h 4.181201 v 2.63736 h 2.101321 v -2.63736 h 4.159759 v 2.63736 h 2.101319 v -2.63736 h 4.159757 v 2.63736 h 2.101324 v -2.63736 h 4.138314 v 2.63736 h 2.101321 v -2.63736 h 4.159755 v 2.63736 h 2.101324 v -2.63736 h 4.159757 v 2.63736 h 2.079878 v -2.63736 h 4.159755 v 2.63736 h 2.101322 v -2.63736 h 4.15976 v 2.63736 h 2.10132 v -2.63736 h 6.3683 v -1.99412 H 56.302983 Z"
     data-original="#FFFFFF"
     id="path8"
     inkscape:connector-curvature="0" /><g
     id="g26"
     transform="matrix(0.2144205,0,0,0.2144205,27.978035,136.97053)">
	<path
   style="fill:#ebe3cb"
   d="m 147.89999,227.10001 h 15.7 V 352.8 h -15.7 z"
   id="rect10"
   inkscape:connector-curvature="0" />
	<path
   style="fill:#ebe3cb"
   d="m 206.8,219.2 h 15.7 v 133.6 h -15.7 z"
   id="rect12"
   inkscape:connector-curvature="0" />
	<path
   style="fill:#ebe3cb"
   d="m 261.79999,234.89999 h 15.7 V 352.8 h -15.7 z"
   id="rect14"
   inkscape:connector-curvature="0" />
	<path
   style="fill:#ebe3cb"
   d="m 320.79999,219.2 h 15.7 v 133.6 h -15.7 z"
   id="rect16"
   inkscape:connector-curvature="0" />
	<path
   style="fill:#ebe3cb"
   d="M 179.3,286 H 195 v 66.8 h -15.7 z"
   id="rect18"
   inkscape:connector-curvature="0" />
	<path
   style="fill:#ebe3cb"
   d="M 238.3,282.10001 H 254 V 352.8 h -15.7 z"
   id="rect20"
   inkscape:connector-curvature="0" />
	<path
   style="fill:#ebe3cb"
   d="m 293.29999,289.89999 h 15.7 V 352.8 h -15.7 z"
   id="rect22"
   inkscape:connector-curvature="0" />
	<path
   style="fill:#ebe3cb"
   d="m 352.20001,282.10001 h 15.7 V 352.8 h -15.7 z"
   id="rect24"
   inkscape:connector-curvature="0" />
</g><g
     style="opacity:0.4"
     id="g46"
     transform="matrix(0.2144205,0,0,0.2144205,27.978035,136.97053)">
	
		<path
   transform="matrix(-0.7071,-0.7071,0.7071,-0.7071,150.261,391.5106)"
   style="fill:#ffffff"
   d="m 155.215,162.685 h 2 v 3.9 h -2 z"
   id="rect28"
   inkscape:connector-curvature="0" />
	<path
   style="fill:#000008;fill-opacity:1"
   d="m 175.8,187 -2.5,-2.5 2.8,-2.8 2.5,2.5 z m -5.1,-5.1 -2.5,-2.5 2.8,-2.8 2.5,2.5 z m -5.1,-5 -2.5,-2.5 2.8,-2.8 2.5,2.5 z m -5,-5.1 -2.5,-2.5 2.8,-2.8 2.5,2.5 z"
   data-original="#FFFFFF"
   id="path30"
   inkscape:connector-curvature="0" />
	
		<path
   transform="matrix(-0.7071,-0.7071,0.7071,-0.7071,174.5126,449.8618)"
   style="fill:#ffffff"
   d="m 179.42599,186.838 h 2 v 3.9 h -2 z"
   id="rect32"
   inkscape:connector-curvature="0" />
	<path
   style="fill:#00002f;fill-opacity:1"
   d="m 182.5,190.8 -2.9,-2.7 2.7,-2.9 2.9,2.7 z m 5.3,-5.8 -2.9,-2.7 2.7,-2.9 2.9,2.7 z m 5.3,-5.7 -2.9,-2.7 2.7,-2.9 2.9,2.7 z m 5.4,-5.8 -2.9,-2.7 2.7,-2.9 2.9,2.7 z m 5.3,-5.8 -2.9,-2.7 2.7,-2.9 2.9,2.7 z m 5.3,-5.8 -2.9,-2.7 2.7,-2.9 2.9,2.7 z m 5.3,-5.8 -2.9,-2.7 1.7,-1.9 2.9,2.7 z"
   data-original="#FFFFFF"
   id="path34"
   inkscape:connector-curvature="0" />
	<path
   style="fill:#00002f;fill-opacity:1"
   d="m 240.2,204.2 -1.1,-2 3.5,-1.9 1.1,2 z m -2.9,-5.4 -1.9,-3.5 3.5,-1.9 1.9,3.5 z m -3.7,-6.9 -1.9,-3.5 3.5,-1.9 1.9,3.5 z m -3.8,-7 -1.9,-3.5 3.5,-1.9 1.9,3.5 z m -3.7,-6.9 -1.9,-3.5 3.5,-1.9 1.9,3.5 z m -3.8,-6.9 -1.9,-3.5 3.5,-1.9 1.9,3.5 z m -3.7,-6.9 -1.9,-3.5 3.5,-1.9 1.9,3.5 z m -3.8,-6.9 -1.9,-3.5 3.5,-1.9 1.9,3.5 z"
   data-original="#FFFFFF"
   id="path36"
   inkscape:connector-curvature="0" />
	<path
   style="fill:#00002f;fill-opacity:1"
   d="m 243.4,204.5 -3,-2.6 2.6,-3 3,2.6 z m 5.2,-5.9 -3,-2.6 2.6,-3 3,2.6 z m 5.1,-5.9 -3,-2.6 2.6,-3 3,2.6 z m 5.2,-6 -3,-2.6 2.6,-3 3,2.6 z m 5.1,-5.9 -3,-2.6 2.6,-3 3,2.6 z m 5.2,-6 -3,-2.6 2,-2.3 3,2.6 z"
   data-original="#FFFFFF"
   id="path38"
   inkscape:connector-curvature="0" />
	<path
   style="fill:#00002f;fill-opacity:1"
   d="m 299.3,216.3 -2.3,-2.9 3.1,-2.4 2.3,2.9 z m -4.7,-6.1 -2.4,-3.1 3.1,-2.4 2.4,3.1 z m -4.8,-6.2 -2.4,-3.1 3.1,-2.4 2.4,3.1 z m -4.9,-6.1 -2.4,-3.1 3.1,-2.4 2.4,3.1 z m -4.9,-6.2 -2.4,-3.1 3.1,-2.4 2.4,3.1 z m -4.8,-6.2 -2.4,-3.1 3.1,-2.4 2.4,3.1 z m -4.9,-6.2 -2.4,-3.1 3.1,-2.4 2.4,3.1 z"
   data-original="#FFFFFF"
   id="path40"
   inkscape:connector-curvature="0" />
	<path
   style="fill:#00002f;fill-opacity:1"
   d="m 302.5,216.2 -3.2,-2.3 2.3,-3.2 3.2,2.2 z m 4.5,-6.5 -3.2,-2.3 2.3,-3.2 3.2,2.3 z m 4.5,-6.4 -3.2,-2.3 2.2,-3.2 3.2,2.3 z m 4.5,-6.4 -3.2,-2.3 2.3,-3.2 3.2,2.3 z m 4.5,-6.5 -3.2,-2.2 2.3,-3.2 3.2,2.3 z m 4.5,-6.4 -3.2,-2.2 2.3,-3.2 3.2,2.3 z m 4.5,-6.5 -3.2,-2.3 0.5,-0.7 3.2,2.3 z"
   data-original="#FFFFFF"
   id="path42"
   inkscape:connector-curvature="0" />
	<path
   style="fill:#00002f;fill-opacity:1"
   d="m 358.3,216.3 -2,-2.5 3.1,-2.5 2,2.5 z m -4.4,-5.6 -2.5,-3.1 3.1,-2.5 2.5,3.1 z m -5,-6.1 -2.5,-3.1 3.1,-2.5 2.5,3.1 z m -4.9,-6.1 -2.5,-3.1 3.1,-2.5 2.5,3.1 z m -4.9,-6.2 -2.5,-3.1 3.1,-2.5 2.5,3.1 z m -4.9,-6.1 -2.5,-3.1 3.1,-2.4 2.5,3.1 z m -4.9,-6.2 -2.5,-3.1 3.1,-2.5 2.5,3.1 z"
   data-original="#FFFFFF"
   id="path44"
   inkscape:connector-curvature="0" />
</g><g
     id="g64"
     transform="matrix(0.2144205,0,0,0.2144205,27.978035,136.97053)">
	<path
   style="fill:#f1d648"
   d="m 166.5,164 a 11,11 0 0 1 -11,11 11,11 0 0 1 -11,-11 11,11 0 0 1 11,-11 11,11 0 0 1 11,11 z"
   id="circle48"
   inkscape:connector-curvature="0" />
	<path
   style="fill:#f1d648"
   d="m 194,187.5 a 11,11 0 0 1 -11,11 11,11 0 0 1 -11,-11 11,11 0 0 1 11,-11 11,11 0 0 1 11,11 z"
   id="circle50"
   inkscape:connector-curvature="0" />
	<path
   style="fill:#f1d648"
   d="m 225.5,156.10001 a 11,11 0 0 1 -11,11 11,11 0 0 1 -11,-11 11,11 0 0 1 11,-11 11,11 0 0 1 11,11 z"
   id="circle52"
   inkscape:connector-curvature="0" />
	<path
   style="fill:#f1d648"
   d="m 230.9,203.3 c 0,-6.1 4.9,-11 11,-11 6.1,0 11,4.9 11,11 0,6.1 -5,11 -11,11 -6,0 -11,-4.9 -11,-11 z"
   data-original="#F1D648"
   class=""
   data-old_color="#F1D648"
   id="path54"
   inkscape:connector-curvature="0" />
	<path
   style="fill:#f1d648"
   d="m 258.4,175.8 c 0,-6.1 5,-11 11,-11 6.1,0 11,4.9 11,11 0,6.1 -4.9,11 -11,11 -6,0 -11,-4.9 -11,-11 z"
   data-original="#F1D648"
   class=""
   data-old_color="#F1D648"
   id="path56"
   inkscape:connector-curvature="0" />
	<path
   style="fill:#f1d648"
   d="m 289.8,215 c 0,-6.1 5,-11 11,-11 6.1,0 11,4.9 11,11 0,6.1 -4.9,11 -11,11 -6,0.1 -11,-4.9 -11,-11 z"
   data-original="#F1D648"
   class=""
   data-old_color="#F1D648"
   id="path58"
   inkscape:connector-curvature="0" />
	<path
   style="fill:#f1d648"
   d="m 339.39999,175.8 a 11,11 0 0 1 -11,11 11,11 0 0 1 -11,-11 11,11 0 0 1 11,-11 11,11 0 0 1 11,11 z"
   id="circle60"
   inkscape:connector-curvature="0" />
	<path
   style="fill:#f1d648"
   d="m 370.79999,215 a 11,11 0 0 1 -11,11 11,11 0 0 1 -11,-11 11,11 0 0 1 11,-11 11,11 0 0 1 11,11 z"
   id="circle62"
   inkscape:connector-curvature="0" />
</g><path
     style="opacity:1;fill:#000000;fill-opacity:1;fill-rule:nonzero;stroke:#000000;stroke-width:0.08532113;stroke-linejoin:miter;stroke-miterlimit:4;stroke-dasharray:none;stroke-opacity:1;paint-order:normal"
     d="m 59.708965,199.1611 v -13.48074 h 1.663762 1.663762 v 13.48074 13.48074 h -1.663762 -1.663762 z"
     id="path4830"
     inkscape:connector-curvature="0" /><path
     style="opacity:1;fill:#000000;fill-opacity:1;fill-rule:nonzero;stroke:#000000;stroke-width:0.08532113;stroke-linejoin:miter;stroke-miterlimit:4;stroke-dasharray:none;stroke-opacity:1;paint-order:normal"
     d="m 66.449331,205.47487 v -7.16698 h 1.663765 1.663765 v 7.16698 7.16697 h -1.663765 -1.663765 z"
     id="path4832"
     inkscape:connector-curvature="0" /><path
     style="opacity:1;fill:#000000;fill-opacity:1;fill-rule:nonzero;stroke:#000000;stroke-width:0.08532113;stroke-linejoin:miter;stroke-miterlimit:4;stroke-dasharray:none;stroke-opacity:1;paint-order:normal"
     d="m 72.336496,198.30789 v -14.33395 h 1.66376 1.663761 v 14.33395 14.33395 h -1.663761 -1.66376 z"
     id="path4834"
     inkscape:connector-curvature="0" /><path
     style="opacity:1;fill:#000000;fill-opacity:1;fill-rule:nonzero;stroke:#000000;stroke-width:0.08532113;stroke-linejoin:miter;stroke-miterlimit:4;stroke-dasharray:none;stroke-opacity:1;paint-order:normal"
     d="m 79.076865,205.04826 v -7.59358 h 1.663756 1.663764 v 7.59358 7.59358 h -1.663764 -1.663756 z"
     id="path4836"
     inkscape:connector-curvature="0" /><path
     style="opacity:1;fill:#000000;fill-opacity:1;fill-rule:nonzero;stroke:#000000;stroke-width:0.08532113;stroke-linejoin:miter;stroke-miterlimit:4;stroke-dasharray:none;stroke-opacity:1;paint-order:normal"
     d="m 84.110813,200.01431 v -12.62752 h 1.663755 1.663765 v 12.62752 12.62753 h -1.663765 -1.663755 z"
     id="path4838"
     inkscape:connector-curvature="0" /><path
     style="opacity:1;fill:#000000;fill-opacity:1;fill-rule:nonzero;stroke:#000000;stroke-width:0.08532113;stroke-linejoin:miter;stroke-miterlimit:4;stroke-dasharray:none;stroke-opacity:1;paint-order:normal"
     d="m 90.908064,212.58496 c -0.03128,-0.0313 -0.05689,-3.06446 -0.05689,-6.74037 v -6.68349 h 1.66376 1.663769 v 6.74037 6.74037 h -1.606887 c -0.883781,0 -1.632473,-0.0256 -1.663755,-0.0569 z"
     id="path4840"
     inkscape:connector-curvature="0" /><path
     style="opacity:1;fill:#000000;fill-opacity:1;fill-rule:nonzero;stroke:#000000;stroke-width:0.08532113;stroke-linejoin:miter;stroke-miterlimit:4;stroke-dasharray:none;stroke-opacity:1;paint-order:normal"
     d="m 96.797004,212.58675 c -0.03229,-0.0323 -0.05867,-6.48334 -0.05867,-14.33574 v -14.27707 h 1.706672 1.706674 l -0.0216,14.31262 -0.0216,14.31262 -1.626414,0.023 c -0.894536,0.0127 -1.652828,-0.003 -1.685093,-0.0355 z"
     id="path4842"
     inkscape:connector-curvature="0" /><path
     style="opacity:1;fill:#000000;fill-opacity:1;fill-rule:nonzero;stroke:#000000;stroke-width:0.08532113;stroke-linejoin:miter;stroke-miterlimit:4;stroke-dasharray:none;stroke-opacity:1;paint-order:normal"
     d="m 103.53558,212.58496 c -0.0313,-0.0313 -0.0569,-3.44839 -0.0569,-7.59358 v -7.5367 h 1.66377 1.66376 v 7.59358 7.59358 h -1.60688 c -0.88378,0 -1.63248,-0.0256 -1.66376,-0.0569 z"
     id="path4844"
     inkscape:connector-curvature="0" /><path
     style="opacity:1;fill:#000000;fill-opacity:1;fill-rule:nonzero;stroke:#000000;stroke-width:0.08532113;stroke-linejoin:miter;stroke-miterlimit:4;stroke-dasharray:none;stroke-opacity:1;paint-order:normal"
     d="m 104.63055,185.34839 c -1.06928,-0.27839 -1.83441,-1.24827 -1.83441,-2.32527 0,-1.27176 1.29575,-2.41432 2.56723,-2.26373 1.86653,0.22106 2.71771,2.42508 1.4951,3.87143 -0.44791,0.52987 -1.56587,0.88995 -2.22792,0.71757 z"
     id="path4846"
     inkscape:connector-curvature="0" /><path
     style="opacity:1;fill:#000000;fill-opacity:1;fill-rule:nonzero;stroke:#000000;stroke-width:0.08532113;stroke-linejoin:miter;stroke-miterlimit:4;stroke-dasharray:none;stroke-opacity:1;paint-order:normal"
     d="m 97.46178,176.78184 c -0.90475,-0.4327 -1.360629,-1.1559 -1.358193,-2.15459 0.0014,-0.51112 0.04067,-0.671 0.262847,-1.06651 0.476197,-0.84764 1.213933,-1.24012 2.204954,-1.17309 1.249218,0.0845 2.125072,1.02838 2.121512,2.28628 -0.002,0.6575 -0.15167,1.04559 -0.5916,1.53255 -0.452243,0.50058 -0.896319,0.70599 -1.613879,0.74651 -0.499164,0.0282 -0.667608,8e-5 -1.025641,-0.17115 z"
     id="path4848"
     inkscape:connector-curvature="0" /><path
     style="opacity:1;fill:#000000;fill-opacity:1;fill-rule:nonzero;stroke:#000000;stroke-width:0.08532113;stroke-linejoin:miter;stroke-miterlimit:4;stroke-dasharray:none;stroke-opacity:1;paint-order:normal"
     d="m 92.088337,185.37032 c -0.815214,-0.20235 -1.392781,-0.65731 -1.71852,-1.35372 -0.526049,-1.12466 0.009,-2.5336 1.162974,-3.0622 0.599974,-0.27483 1.449518,-0.24335 2.033606,0.0754 0.834043,0.45511 1.258251,1.23814 1.193141,2.20235 -0.0793,1.17426 -0.901148,2.02153 -2.073954,2.13814 -0.234638,0.0234 -0.503394,0.0234 -0.597247,6e-5 z"
     id="path4850"
     inkscape:connector-curvature="0" /><path
     style="opacity:1;fill:#000000;fill-opacity:1;fill-rule:nonzero;stroke:#000000;stroke-width:0.08532113;stroke-linejoin:miter;stroke-miterlimit:4;stroke-dasharray:none;stroke-opacity:1;paint-order:normal"
     d="m 85.002689,176.86963 c -0.981808,-0.39779 -1.574447,-1.22336 -1.574447,-2.19322 0,-1.28963 1.014853,-2.30722 2.299087,-2.30531 1.330381,0.002 2.303051,0.97352 2.305546,2.30283 0.0018,0.91458 -0.464709,1.66918 -1.29959,2.10254 -0.34729,0.18026 -1.378596,0.23578 -1.730596,0.0931 z"
     id="path4852"
     inkscape:connector-curvature="0" /><path
     style="opacity:1;fill:#000000;fill-opacity:1;fill-rule:nonzero;stroke:#000000;stroke-width:0.08532113;stroke-linejoin:miter;stroke-miterlimit:4;stroke-dasharray:none;stroke-opacity:1;paint-order:normal"
     d="m 79.045077,182.74468 c -0.820064,-0.30519 -1.411851,-1.08249 -1.480308,-1.94439 -0.05355,-0.67425 0.07348,-1.15345 0.429518,-1.62025 0.574939,-0.75378 1.585686,-1.09411 2.508113,-0.84448 0.859743,0.23265 1.550191,1.07802 1.622336,1.98634 0.05355,0.67424 -0.07348,1.15346 -0.429514,1.62025 -0.444035,0.58216 -0.967397,0.85713 -1.702123,0.89427 -0.400016,0.0202 -0.734021,-0.0121 -0.948022,-0.0917 z"
     id="path4854"
     inkscape:connector-curvature="0" /><path
     style="opacity:1;fill:#000000;fill-opacity:1;fill-rule:nonzero;stroke:#000000;stroke-width:0.08532113;stroke-linejoin:miter;stroke-miterlimit:4;stroke-dasharray:none;stroke-opacity:1;paint-order:normal"
     d="m 66.833278,179.44823 c -0.506427,-0.0838 -0.762061,-0.20899 -1.160762,-0.56842 -1.187027,-1.07012 -0.959403,-2.95993 0.450592,-3.74095 0.389663,-0.21583 0.545146,-0.25159 1.094117,-0.25159 0.548971,0 0.704456,0.0357 1.094117,0.25159 1.406187,0.77891 1.637642,2.67084 0.456953,3.7352 -0.56147,0.50614 -1.200418,0.69575 -1.935017,0.57417 z"
     id="path4856"
     inkscape:connector-curvature="0" /><path
     style="opacity:1;fill:#000000;fill-opacity:1;fill-rule:nonzero;stroke:#000000;stroke-width:0.08532113;stroke-linejoin:miter;stroke-miterlimit:4;stroke-dasharray:none;stroke-opacity:1;paint-order:normal"
     d="m 60.495203,174.31074 c -0.422084,-0.13525 -1.04149,-0.72777 -1.266971,-1.21199 -0.285929,-0.61403 -0.278486,-1.39437 0.01899,-1.99135 0.590827,-1.18563 2.022512,-1.62643 3.20037,-0.98536 0.792786,0.43149 1.232111,1.24359 1.166771,2.15679 -0.09104,1.27234 -1.029684,2.14742 -2.284304,2.1296 -0.305023,-0.004 -0.680711,-0.0483 -0.834862,-0.0977 z"
     id="path4858"
     inkscape:connector-curvature="0" /><path
     style="opacity:1;fill:#000000;fill-opacity:1;fill-rule:nonzero;stroke:#000000;stroke-width:0.08532113;stroke-linejoin:miter;stroke-miterlimit:4;stroke-dasharray:none;stroke-opacity:1;paint-order:normal"
     d="m 73.343777,172.68165 c -0.422788,-0.11817 -0.535766,-0.18703 -0.993434,-0.60555 -0.489552,-0.44769 -0.650805,-0.85046 -0.650805,-1.62556 0,-0.81214 0.161677,-1.18391 0.751183,-1.7273 1.121998,-1.03421 2.923588,-0.68108 3.602269,0.7061 0.197481,0.40362 0.222585,0.54481 0.192774,1.08392 -0.03934,0.71167 -0.219711,1.148 -0.654039,1.58233 -0.559498,0.55949 -1.482276,0.80007 -2.247948,0.58606 z"
     id="path4860"
     inkscape:connector-curvature="0" /></g> </svg>