<?xml version="1.0" encoding="UTF-8" standalone="no"?>
<!-- Created with Inkscape (http://www.inkscape.org/) -->

<svg
   xmlns:dc="http://purl.org/dc/elements/1.1/"
   xmlns:cc="http://creativecommons.org/ns#"
   xmlns:rdf="http://www.w3.org/1999/02/22-rdf-syntax-ns#"
   xmlns:svg="http://www.w3.org/2000/svg"
   xmlns="http://www.w3.org/2000/svg"
   xmlns:sodipodi="http://sodipodi.sourceforge.net/DTD/sodipodi-0.dtd"
   xmlns:inkscape="http://www.inkscape.org/namespaces/inkscape"
   version="1.1"
   id="svg3996"
   width="97.300003"
   height="97.800003"
   viewBox="0 0 97.300003 97.800003"
   sodipodi:docname="fraunhofer_logo.svg"
   inkscape:version="0.92.3 (2405546, 2018-03-11)">
  <metadata
     id="metadata4002">
    <rdf:RDF>
      <cc:Work
         rdf:about="">
        <dc:format>image/svg+xml</dc:format>
        <dc:type
           rdf:resource="http://purl.org/dc/dcmitype/StillImage" />
        <dc:title></dc:title>
      </cc:Work>
    </rdf:RDF>
  </metadata>
  <defs
     id="defs4000">
    <symbol
       id="symbol3968">
      <path
         style="opacity:1;fill:none;fill-opacity:1;fill-rule:evenodd;stroke:#0000f1;stroke-width:5.43295479;stroke-linejoin:round;stroke-miterlimit:4;stroke-dasharray:none;stroke-opacity:0.97706419;paint-order:fill markers stroke"
         id="path3962"
         sodipodi:type="arc"
         sodipodi:cx="76.234634"
         sodipodi:cy="326.07043"
         sodipodi:rx="50.552326"
         sodipodi:ry="50.552326"
         sodipodi:start="0.20466953"
         sodipodi:end="0.20246168"
         d="M 125.73184,336.34487 A 50.552326,50.552326 0 0 1 65.98752,375.57331 50.552326,50.552326 0 0 1 26.726114,315.85065 50.552326,50.552326 0 0 1 86.427095,276.55628 50.552326,50.552326 0 0 1 125.75441,336.23556 L 76.234634,326.07043 Z" />
    </symbol>
    <clipPath
       clipPathUnits="userSpaceOnUse"
       id="clipPath4808">
      <path
         style="opacity:1;fill:none;fill-opacity:1;fill-rule:evenodd;stroke:#0000f1;stroke-width:0.97145128;stroke-linejoin:round;stroke-miterlimit:4;stroke-dasharray:none;stroke-opacity:0.97706419;paint-order:fill markers stroke"
         id="path4810"
         sodipodi:type="arc"
         sodipodi:cx="75.329575"
         sodipodi:cy="325.5274"
         sodipodi:rx="48.779995"
         sodipodi:ry="48.779995"
         sodipodi:start="0.20466953"
         sodipodi:end="0.20173107"
         d="M 123.09144,335.44163 A 48.779995,48.779995 0 0 1 65.450442,373.29654 48.779995,48.779995 0 0 1 27.553191,315.68337 48.779995,48.779995 0 0 1 85.138513,277.7438 48.779995,48.779995 0 0 1 123.12037,335.30124"
         sodipodi:open="true" />
    </clipPath>
  </defs>
  <sodipodi:namedview
     pagecolor="#ffffff"
     bordercolor="#666666"
     borderopacity="1"
     objecttolerance="10"
     gridtolerance="10"
     guidetolerance="10"
     inkscape:pageopacity="0"
     inkscape:pageshadow="2"
     inkscape:window-width="1920"
     inkscape:window-height="1052"
     id="namedview3998"
     showgrid="false"
     fit-margin-top="0"
     fit-margin-left="0"
     fit-margin-right="0"
     fit-margin-bottom="0"
     showguides="false"
     inkscape:zoom="5.5245678"
     inkscape:cx="2.2928616"
     inkscape:cy="39.327862"
     inkscape:window-x="2560"
     inkscape:window-y="0"
     inkscape:window-maximized="1"
     inkscape:current-layer="g4104" />
  <style
     id="style4025"
     type="text/css">
	.st0{fill:#179C7D;}
	.st1{fill:#FFFFFF;}
</style>
  <g
     id="g4104"
     transform="translate(-27,-275.87596)">
    <g
       id="g4069"
       transform="translate(0,-0.72403854)"
       clip-path="url(#clipPath4808)">
      <path
         id="path4027"
         d="m 27,374.4 c 23.1,-11.9 57,-31.2 97.3,-59.3 v -9.5 C 88.9,328.8 52.9,347.4 27,359.7 Z"
         class="st0"
         inkscape:connector-curvature="0"
         style="fill:#179c7d" />
      <path
         id="path4029"
         d="m 27,346.2 c 25.8,-10.5 61.8,-26.7 97.3,-47.8 v -4.7 c -33.4,16.6 -68,26.9 -97.3,33.4 z"
         class="st0"
         inkscape:connector-curvature="0"
         style="fill:#179c7d" />
      <path
         id="path4031"
         d="m 124.3,374.4 v -47.5 c -22.1,18.7 -44.1,34.8 -62.5,47.5 z"
         class="st0"
         inkscape:connector-curvature="0"
         style="fill:#179c7d" />
      <path
         id="path4033"
         d="M 49.3,374.4 C 66.8,364 88,350.5 109.2,334.6 c 4.9,-3.7 10,-7.5 15.1,-11.4 v -5.9 C 93,340.8 61,360.3 36.1,374.4 Z"
         class="st0"
         inkscape:connector-curvature="0"
         style="fill:#179c7d" />
      <path
         id="path4035"
         d="m 27,320.1 c 28.5,-5 63.3,-14 97.3,-30.2 v -5.3 C 90,300 55.7,306.6 27,308.9 Z"
         class="st0"
         inkscape:connector-curvature="0"
         style="fill:#179c7d" />
      <path
         id="path4037"
         d="m 27,276.7 v 27.2 c 2.1,-0.1 4.3,-0.3 6.5,-0.5 23.7,-1.8 55.9,-6 90.8,-21.1 v -5.7 H 27 Z"
         class="st0"
         inkscape:connector-curvature="0"
         style="fill:#179c7d" />
      <g
         id="g4043">
        <g
           id="g4041">
          <path
             id="path4039"
             d="m 27,303.9 v 5 c 28.7,-2.3 63,-8.8 97.3,-24.2 v -2.3 c -34.8,15.1 -67.1,19.2 -90.8,21.1 -2.2,0.1 -4.4,0.3 -6.5,0.4 z"
             class="st1"
             inkscape:connector-curvature="0"
             style="fill:#ffffff" />
        </g>
      </g>
      <g
         id="g4049">
        <g
           id="g4047">
          <path
             id="path4045"
             d="m 27,327 c 29.3,-6.5 63.9,-16.8 97.3,-33.4 V 290 c -34,16.2 -68.8,25.2 -97.3,30.2 z"
             class="st1"
             inkscape:connector-curvature="0"
             style="fill:#ffffff" />
        </g>
      </g>
      <g
         id="g4055">
        <g
           id="g4053">
          <path
             id="path4051"
             d="m 27,359.7 c 25.9,-12.3 61.9,-30.9 97.3,-54.1 v -7.3 C 88.8,319.4 52.8,335.6 27,346.1 Z"
             class="st1"
             inkscape:connector-curvature="0"
             style="fill:#ffffff" />
        </g>
      </g>
      <g
         id="g4061">
        <g
           id="g4059">
          <path
             id="path4057"
             d="m 49.3,374.4 h 12.4 c 18.4,-12.7 40.4,-28.9 62.5,-47.5 v -3.7 c -5.1,3.9 -10.1,7.7 -15.1,11.4 -21,15.9 -42.3,29.5 -59.8,39.8 z"
             class="st1"
             inkscape:connector-curvature="0"
             style="fill:#ffffff" />
        </g>
      </g>
      <g
         id="g4067">
        <g
           id="g4065">
          <path
             id="path4063"
             d="m 27,374.4 h 9.1 c 25,-14.1 56.9,-33.6 88.2,-57.1 V 315 C 84,343.2 50.1,362.5 27,374.4 Z"
             class="st1"
             inkscape:connector-curvature="0"
             style="fill:#ffffff" />
        </g>
      </g>
    </g>
  </g>
</svg>
