<?xml version="1.0" ?><!DOCTYPE svg  PUBLIC '-//W3C//DTD SVG 1.1//EN'  'http://www.w3.org/Graphics/SVG/1.1/DTD/svg11.dtd'><svg height="512px" style="enable-background:new 0 0 512 512;" version="1.1" viewBox="0 0 512 512" width="512px" xml:space="preserve" xmlns="http://www.w3.org/2000/svg" xmlns:xlink="http://www.w3.org/1999/xlink"><g id="_x32_38_x2C__bank_x2C__banking_x2C__online_x2C__university_x2C__building_x2C__education"><g><path d="M363.589,205.873H145.107v19.123h17.7h0.121h41.126h0.091h30.306h41.308    h30.307h0.091h41.126h0.092h16.214V205.873z M195.993,304.733v-62.251h-25.033v62.251H195.993z M267.607,304.733v-62.251h-25.033    v62.251H267.607z M238.27,232.451v2.576h0.486h0.091h32.488h0.091h0.516v-2.576H238.27z M309.885,232.451v2.576h0.486h0.092    h32.486h0.092h0.516v-2.576H309.885z M166.655,232.451v2.576h0.486h0.089h32.489h0.091h0.516v-2.576H166.655z M207.751,232.451    v6.305c0,2.061-1.667,3.727-3.697,3.727h-0.605v62.251h31.67v-62.251h-0.576c-2.06,0-3.727-1.666-3.727-3.727v-6.305H207.751z     M339.223,304.733v-62.251h-25.033v62.251H339.223z M306.733,304.733v-62.251h-0.576c-2.06,0-3.727-1.666-3.727-3.727v-6.305    h-23.033v6.305c0,2.061-1.698,3.727-3.729,3.727h-0.605v62.251H306.733z M154.625,318.038h199.449v-5.849h-11.032h-0.092h-32.486    h-0.092h-38.945h-0.091h-32.488h-0.091h-38.945h-0.091H167.23h-0.089h-12.517V318.038z M142.896,331.313h222.936v-5.819h-7.819    h-0.212H150.896h-0.181h-7.819V331.313z M311.067,58.643c1.88,3.242,4.122,6.455,6.669,9.484c2.545,3.002,5.334,5.729,8.273,8.153    c3,2.516,6.211,4.697,9.545,6.577c3.426,1.908,6.973,3.516,10.549,4.758c3.455,1.182,6.999,2.091,10.575,2.667    c0-3.577-0.272-7.214-0.878-10.819c-0.606-3.758-1.606-7.517-2.91-11.244c-1.303-3.607-2.91-7.152-4.879-10.517    c-1.879-3.304-4.092-6.485-6.668-9.517c-2.546-3-5.303-5.728-8.244-8.183c-3.029-2.485-6.242-4.667-9.575-6.546    c-3.425-1.91-6.972-3.516-10.548-4.759c-3.455-1.182-7.002-2.091-10.578-2.696c0,3.605,0.304,7.242,0.88,10.85    c0.637,3.758,1.607,7.546,2.94,11.244C307.521,51.732,309.129,55.277,311.067,58.643z M193.78,68.127    c2.546-3.029,4.789-6.242,6.668-9.484c1.939-3.365,3.546-6.91,4.848-10.547c1.333-3.729,2.304-7.486,2.939-11.244    c0.577-3.607,0.879-7.244,0.879-10.85c-3.576,0.605-7.121,1.515-10.576,2.696c-3.576,1.243-7.123,2.849-10.548,4.759    c-3.334,1.879-6.545,4.061-9.576,6.576c-2.941,2.425-5.729,5.152-8.244,8.152c-2.576,3.031-4.789,6.213-6.668,9.517    c-1.97,3.364-3.576,6.909-4.88,10.517c-1.302,3.697-2.302,7.486-2.909,11.244c-0.605,3.605-0.879,7.242-0.879,10.819    c3.576-0.576,7.123-1.485,10.548-2.667c3.606-1.242,7.152-2.85,10.578-4.758c3.333-1.88,6.545-4.062,9.546-6.577    C188.446,73.855,191.234,71.129,193.78,68.127z M115.467,98.344c3.606-3.425,7.395-6.698,11.274-9.85    c5.061-4.122,10.274-7.971,15.577-11.486c1.82-1.213,4.275-0.728,5.485,1.091c1.213,1.818,0.729,4.273-1.089,5.485    c-5.243,3.486-10.274,7.184-15.003,11.032c-4.666,3.788-9.153,7.788-13.485,12.001c0.514,1.91,0.969,3.879,1.334,5.819    c0.726,4.091,1.121,8.334,1.121,12.729c0,4.394-0.395,8.667-1.121,12.729c-0.788,4.242-1.909,8.364-3.396,12.305    c-1.484,4-3.364,7.849-5.545,11.516c-2.092,3.547-4.517,6.91-7.184,10.032c-2.727-3.151-5.152-6.517-7.212-10.032    c-2.183-3.637-4.063-7.485-5.547-11.516c-1.484-3.94-2.606-8.063-3.394-12.305c-0.729-4.062-1.122-8.335-1.122-12.729    c0-4.396,0.393-8.639,1.122-12.699c0.788-4.243,1.909-8.396,3.394-12.335c1.484-3.97,3.334-7.819,5.515-11.486    c2.122-3.546,4.546-6.909,7.214-10.031c2.727,3.151,5.152,6.516,7.214,10.031C112.467,91.736,114.104,94.979,115.467,98.344z     M66.794,191.841c-0.091,0.333-0.212,0.636-0.363,0.909c1.971,1.848,3.88,3.849,5.668,5.971c2.727,3.211,5.182,6.727,7.365,10.485    c2.181,3.759,3.969,7.668,5.394,11.608c1.455,4.029,2.517,8.151,3.213,12.305c0.697,4.242,1.03,8.546,0.969,12.729    c-0.06,4.091-0.484,8.213-1.242,12.273c-3.91-1.363-7.667-3.061-11.243-5.031c-3.697-2.09-7.244-4.484-10.548-7.213    c-3.213-2.637-6.212-5.605-9-8.879c-2.699-3.213-5.183-6.668-7.334-10.396l-0.151-0.272c-2.153-3.728-3.941-7.576-5.334-11.485    c-1.455-4.031-2.517-8.184-3.213-12.335c-0.727-4.243-1.03-8.517-0.971-12.729c0.032-4.092,0.457-8.213,1.244-12.273    c3.848,1.363,7.637,3.061,11.213,5.061c2.576,1.424,5.061,3.031,7.456,4.788c1.939-6.304,4.152-12.456,6.666-18.456    c2.85-6.819,6.031-13.457,9.548-19.852c1.03-1.909,3.455-2.605,5.364-1.545c1.909,1.029,2.606,3.454,1.576,5.363    c-3.394,6.184-6.485,12.547-9.183,19.063C71.19,178.414,68.794,185.082,66.794,191.841z M63.946,292.368    c0.151,0.667,0.121,1.333-0.062,1.939c3.455,0.697,6.91,1.637,10.274,2.849c3.939,1.425,7.849,3.213,11.608,5.395    c3.758,2.183,7.273,4.638,10.457,7.365c3.302,2.788,6.303,5.85,8.97,9.062c2.727,3.304,5.122,6.849,7.182,10.517    c2.032,3.606,3.697,7.364,5.092,11.273c-4.092,0.758-8.183,1.182-12.274,1.242c-4.213,0.062-8.486-0.242-12.729-0.969    c-4.182-0.697-8.304-1.758-12.334-3.213c-3.971-1.424-7.851-3.213-11.64-5.395c-3.697-2.152-7.212-4.606-10.425-7.364    c-3.302-2.788-6.303-5.819-8.97-9.062c-2.729-3.304-5.122-6.85-7.214-10.517c-2-3.576-3.697-7.364-5.061-11.274    c4.061-0.758,8.182-1.182,12.274-1.242c2.302-0.031,4.606,0.061,6.91,0.242c-1.576-6.971-2.82-14.032-3.638-21.154    c-0.879-7.305-1.363-14.82-1.425-22.488c-0.03-2.182,1.729-3.97,3.91-3.97c2.153-0.03,3.941,1.728,3.971,3.909    c0.06,7.214,0.545,14.427,1.393,21.609C61.066,278.366,62.339,285.459,63.946,292.368z M112.407,382.622    c0.514,0.575,0.847,1.243,1,1.97c3.787-1.395,7.728-2.485,11.789-3.213c4.092-0.727,8.335-1.121,12.729-1.121    c4.394,0,8.637,0.395,12.729,1.121c4.213,0.758,8.335,1.91,12.304,3.395c4,1.485,7.849,3.334,11.486,5.516    c3.576,2.121,6.94,4.547,10.032,7.214c-3.092,2.667-6.456,5.091-10.002,7.212c-3.636,2.184-7.516,4.031-11.516,5.547    c-3.969,1.455-8.091,2.605-12.304,3.364c-4.092,0.758-8.335,1.121-12.729,1.121c-4.394,0-8.668-0.363-12.729-1.121    c-4.243-0.759-8.365-1.909-12.304-3.364c-4.001-1.484-7.849-3.363-11.487-5.516c-3.576-2.122-6.94-4.546-10.062-7.243    c3.122-2.667,6.456-5.063,10.002-7.184c1.605-0.969,3.272-1.849,4.939-2.667c-5.152-5.516-10.032-11.305-14.579-17.396    c-4.606-6.183-8.909-12.638-12.818-19.336c-1.123-1.849-0.486-4.272,1.394-5.396c1.879-1.09,4.304-0.454,5.394,1.426    c3.759,6.425,7.88,12.638,12.336,18.578C102.466,371.469,107.285,377.197,112.407,382.622z M352.588,419.173    c1.88-1.092,4.303-0.425,5.395,1.454c1.062,1.909,0.395,4.334-1.484,5.395c-15.124,8.546-31.43,15.214-48.582,19.73    c-16.669,4.394-34.156,6.697-52.128,6.697c-18.002,0-35.458-2.304-52.126-6.697l-0.212-0.062    c-17.093-4.485-33.338-11.153-48.37-19.669c-1.909-1.061-2.576-3.485-1.486-5.395c1.062-1.879,3.487-2.546,5.396-1.454    c14.456,8.182,30.094,14.576,46.55,18.91l0.121,0.03c15.972,4.184,32.763,6.426,50.128,6.426c17.335,0,34.126-2.242,50.098-6.426    C322.403,433.78,338.071,427.354,352.588,419.173z M425.87,346.951c1.092-1.88,3.515-2.516,5.395-1.426    c1.879,1.123,2.517,3.547,1.425,5.396c-3.939,6.698-8.214,13.153-12.851,19.336c-4.517,6.03-9.335,11.789-14.426,17.244    c1.788,0.849,3.516,1.788,5.243,2.818c3.545,2.121,6.879,4.517,10.001,7.184c-3.122,2.697-6.485,5.091-10.062,7.243    c-3.638,2.152-7.486,4.031-11.486,5.516c-3.939,1.455-8.063,2.605-12.305,3.364c-4.061,0.758-8.336,1.121-12.729,1.121    s-8.637-0.363-12.729-1.121c-4.214-0.759-8.365-1.909-12.305-3.364c-4.001-1.516-7.88-3.363-11.517-5.547    c-3.546-2.121-6.91-4.545-10.002-7.212c3.092-2.667,6.456-5.093,10.063-7.214c3.607-2.182,7.455-4.03,11.456-5.516    c3.939-1.484,8.091-2.637,12.335-3.395c4.062-0.727,8.305-1.121,12.698-1.121s8.669,0.395,12.729,1.121    c3.909,0.697,7.728,1.728,11.395,3.062c0.151-0.667,0.455-1.304,0.939-1.818c5.122-5.425,9.94-11.153,14.396-17.093    C417.99,359.589,422.111,353.376,425.87,346.951z M452.722,249.514c0.029-2.182,1.817-3.939,4.001-3.909    c2.151,0,3.909,1.788,3.909,3.97c-0.091,7.668-0.575,15.184-1.425,22.488c-0.848,7.152-2.09,14.214-3.697,21.184    c2.484-0.211,4.939-0.303,7.395-0.271c4.092,0.061,8.214,0.484,12.274,1.242c-1.363,3.91-3.061,7.698-5.061,11.274    c-2.092,3.667-4.485,7.213-7.214,10.517c-2.667,3.242-5.666,6.273-8.971,9.062c-3.213,2.758-6.728,5.212-10.456,7.364    c-3.757,2.182-7.637,3.971-11.605,5.395c-4.033,1.455-8.153,2.516-12.336,3.213c-4.243,0.727-8.517,1.03-12.729,0.969    c-4.09-0.061-8.182-0.484-12.274-1.242c1.396-3.909,3.062-7.667,5.093-11.273c2.06-3.668,4.455-7.213,7.182-10.517    c2.667-3.212,5.668-6.273,8.971-9.062c3.183-2.728,6.697-5.183,10.456-7.365c3.759-2.182,7.669-3.97,11.607-5.395    c3.214-1.15,6.516-2.061,9.85-2.758c-0.181-0.637-0.242-1.334-0.06-2.03c1.576-6.88,2.848-14.002,3.697-21.245    C452.176,263.94,452.662,256.728,452.722,249.514z M428.506,152.865c-1.06-1.909-0.363-4.334,1.546-5.363    c1.909-1.061,4.334-0.364,5.364,1.545c3.517,6.395,6.728,13.032,9.578,19.852c2.516,6.092,4.788,12.335,6.728,18.729    c2.484-1.879,5.122-3.576,7.819-5.061c3.576-2,7.364-3.697,11.214-5.061c0.788,4.061,1.182,8.182,1.242,12.273    c0.06,4.213-0.242,8.486-0.97,12.729c-0.667,4.151-1.759,8.273-3.213,12.335c-1.394,3.879-3.182,7.729-5.333,11.485l-0.152,0.272    c-2.151,3.729-4.637,7.184-7.333,10.365c-2.789,3.305-5.789,6.273-9.002,8.91c-3.305,2.729-6.849,5.152-10.546,7.184    c-3.576,2-7.335,3.697-11.245,5.061c-0.758-4.061-1.183-8.183-1.242-12.244c-0.062-4.212,0.272-8.516,0.969-12.758    c0.698-4.153,1.758-8.275,3.213-12.305c1.425-3.94,3.243-7.85,5.395-11.608c2.183-3.759,4.667-7.274,7.364-10.485    c1.729-2.031,3.517-3.91,5.396-5.698c-0.242-0.364-0.424-0.759-0.545-1.182c-2.001-6.79-4.364-13.427-7.062-19.912    C434.962,165.412,431.901,159.049,428.506,152.865z M364.438,83.312c-1.817-1.212-2.304-3.667-1.092-5.485    c1.183-1.789,3.638-2.304,5.456-1.092c5.455,3.607,10.729,7.486,15.82,11.607c4.061,3.273,8,6.729,11.789,10.305    c1.395-3.485,3.06-6.818,4.971-10.031c2.061-3.485,4.485-6.85,7.212-10.001c2.667,3.122,5.093,6.485,7.214,10.031    c2.182,3.667,4.03,7.517,5.516,11.486c1.484,3.939,2.605,8.092,3.394,12.335c0.728,4.061,1.123,8.304,1.123,12.699    c0,4.394-0.396,8.667-1.123,12.729c-0.757,4.242-1.909,8.364-3.394,12.305c-1.515,4.03-3.364,7.879-5.547,11.516    c-2.061,3.516-4.485,6.881-7.212,10.032c-2.668-3.122-5.093-6.485-7.183-10.032c-2.184-3.667-4.063-7.516-5.547-11.516    c-1.484-3.94-2.605-8.063-3.394-12.305c-0.728-4.062-1.123-8.335-1.123-12.729c0-4.396,0.396-8.639,1.123-12.729    c0.333-1.849,0.757-3.667,1.242-5.455c-4.485-4.396-9.185-8.577-14.032-12.517C374.771,90.524,369.711,86.797,364.438,83.312z     M74.887,469.481c-2.183,0-3.971-1.759-3.971-3.939c0-2.184,1.788-3.972,3.971-3.972h271.275c2.184,0,3.972,1.788,3.972,3.972    c0,2.181-1.788,3.939-3.972,3.939H74.887z M233.725,485.999c-2.183,0-3.941-1.788-3.941-3.972c0-2.181,1.758-3.969,3.941-3.969    h187.72c2.212,0,3.971,1.788,3.971,3.969c0,2.184-1.759,3.972-3.971,3.972H233.725z M440.659,485.999    c-2.181,0-3.939-1.788-3.939-3.972c0-2.181,1.759-3.969,3.939-3.969h23.487c2.184,0,3.972,1.788,3.972,3.969    c0,2.184-1.788,3.972-3.972,3.972H440.659z M64.188,485.482c-2.183,0-3.939-1.756-3.939-3.939c0-2.182,1.756-3.97,3.939-3.97    h88.95c2.183,0,3.971,1.788,3.971,3.97c0,2.184-1.788,3.939-3.971,3.939H64.188z M141.38,198.417h225.938h0.089h1.698    l-109.712-50.279V115.77h34.52V92.191h-34.52v-4.122h-7.454v58.493L139.5,198.417h1.788H141.38z" style="fill-rule:evenodd;clip-rule:evenodd;"/></g></g><g id="Layer_1"/></svg>