<?xml version="1.0" encoding="UTF-8" standalone="no"?>
<svg
   xmlns:dc="http://purl.org/dc/elements/1.1/"
   xmlns:cc="http://creativecommons.org/ns#"
   xmlns:rdf="http://www.w3.org/1999/02/22-rdf-syntax-ns#"
   xmlns:svg="http://www.w3.org/2000/svg"
   xmlns="http://www.w3.org/2000/svg"
   xmlns:sodipodi="http://sodipodi.sourceforge.net/DTD/sodipodi-0.dtd"
   xmlns:inkscape="http://www.inkscape.org/namespaces/inkscape"
   height="459.99799"
   version="1.1"
   viewBox="0 0 438.35901 459.99799"
   width="438.35901"
   xml:space="preserve"
   id="svg9399"
   sodipodi:docname="iconfinder_238_bank_banking_online_university_building_education_3957679.svg"
   inkscape:version="0.92.3 (2405546, 2018-03-11)"><metadata
     id="metadata9405"><rdf:RDF><cc:Work
         rdf:about=""><dc:format>image/svg+xml</dc:format><dc:type
           rdf:resource="http://purl.org/dc/dcmitype/StillImage" /><dc:title></dc:title></cc:Work></rdf:RDF></metadata><defs
     id="defs9403" /><sodipodi:namedview
     pagecolor="#ffffff"
     bordercolor="#666666"
     borderopacity="1"
     objecttolerance="10"
     gridtolerance="10"
     guidetolerance="10"
     inkscape:pageopacity="0"
     inkscape:pageshadow="2"
     inkscape:window-width="2560"
     inkscape:window-height="1412"
     id="namedview9401"
     showgrid="false"
     fit-margin-top="0"
     fit-margin-left="0"
     fit-margin-right="0"
     fit-margin-bottom="0"
     inkscape:zoom="2.4355469"
     inkscape:cx="219.18"
     inkscape:cy="229.999"
     inkscape:window-x="4480"
     inkscape:window-y="0"
     inkscape:window-maximized="1"
     inkscape:current-layer="svg9399" /><g
     id="_x32_38_x2C__bank_x2C__banking_x2C__online_x2C__university_x2C__building_x2C__education"
     transform="translate(-36.82,-26.001)"><g
       id="g9395"><path
         d="M 363.589,205.873 H 145.107 v 19.123 h 17.7 0.121 41.126 0.091 30.306 41.308 30.307 0.091 41.126 0.092 16.214 z m -167.596,98.86 V 242.482 H 170.96 v 62.251 z m 71.614,0 v -62.251 h -25.033 v 62.251 z M 238.27,232.451 v 2.576 h 0.486 0.091 32.488 0.091 0.516 v -2.576 z m 71.615,0 v 2.576 h 0.486 0.092 32.486 0.092 0.516 v -2.576 z m -143.23,0 v 2.576 h 0.486 0.089 32.489 0.091 0.516 v -2.576 z m 41.096,0 v 6.305 c 0,2.061 -1.667,3.727 -3.697,3.727 h -0.605 v 62.251 h 31.67 v -62.251 h -0.576 c -2.06,0 -3.727,-1.666 -3.727,-3.727 v -6.305 z m 131.472,72.282 V 242.482 H 314.19 v 62.251 z m -32.49,0 v -62.251 h -0.576 c -2.06,0 -3.727,-1.666 -3.727,-3.727 v -6.305 h -23.033 v 6.305 c 0,2.061 -1.698,3.727 -3.729,3.727 h -0.605 v 62.251 z m -152.108,13.305 h 199.449 v -5.849 h -11.032 -0.092 -32.486 -0.092 -38.945 -0.091 -32.488 -0.091 -38.945 -0.091 -32.491 -0.089 -12.517 v 5.849 z m -11.729,13.275 h 222.936 v -5.819 h -7.819 -0.212 -206.905 -0.181 -7.819 z M 311.067,58.643 c 1.88,3.242 4.122,6.455 6.669,9.484 2.545,3.002 5.334,5.729 8.273,8.153 3,2.516 6.211,4.697 9.545,6.577 3.426,1.908 6.973,3.516 10.549,4.758 3.455,1.182 6.999,2.091 10.575,2.667 0,-3.577 -0.272,-7.214 -0.878,-10.819 -0.606,-3.758 -1.606,-7.517 -2.91,-11.244 -1.303,-3.607 -2.91,-7.152 -4.879,-10.517 -1.879,-3.304 -4.092,-6.485 -6.668,-9.517 -2.546,-3 -5.303,-5.728 -8.244,-8.183 -3.029,-2.485 -6.242,-4.667 -9.575,-6.546 -3.425,-1.91 -6.972,-3.516 -10.548,-4.759 -3.455,-1.182 -7.002,-2.091 -10.578,-2.696 0,3.605 0.304,7.242 0.88,10.85 0.637,3.758 1.607,7.546 2.94,11.244 1.303,3.637 2.911,7.182 4.849,10.548 z M 193.78,68.127 c 2.546,-3.029 4.789,-6.242 6.668,-9.484 1.939,-3.365 3.546,-6.91 4.848,-10.547 1.333,-3.729 2.304,-7.486 2.939,-11.244 0.577,-3.607 0.879,-7.244 0.879,-10.85 -3.576,0.605 -7.121,1.515 -10.576,2.696 -3.576,1.243 -7.123,2.849 -10.548,4.759 -3.334,1.879 -6.545,4.061 -9.576,6.576 -2.941,2.425 -5.729,5.152 -8.244,8.152 -2.576,3.031 -4.789,6.213 -6.668,9.517 -1.97,3.364 -3.576,6.909 -4.88,10.517 -1.302,3.697 -2.302,7.486 -2.909,11.244 -0.605,3.605 -0.879,7.242 -0.879,10.819 3.576,-0.576 7.123,-1.485 10.548,-2.667 3.606,-1.242 7.152,-2.85 10.578,-4.758 3.333,-1.88 6.545,-4.062 9.546,-6.577 2.94,-2.425 5.728,-5.151 8.274,-8.153 z m -78.313,30.217 c 3.606,-3.425 7.395,-6.698 11.274,-9.85 5.061,-4.122 10.274,-7.971 15.577,-11.486 1.82,-1.213 4.275,-0.728 5.485,1.091 1.213,1.818 0.729,4.273 -1.089,5.485 -5.243,3.486 -10.274,7.184 -15.003,11.032 -4.666,3.788 -9.153,7.788 -13.485,12.001 0.514,1.91 0.969,3.879 1.334,5.819 0.726,4.091 1.121,8.334 1.121,12.729 0,4.394 -0.395,8.667 -1.121,12.729 -0.788,4.242 -1.909,8.364 -3.396,12.305 -1.484,4 -3.364,7.849 -5.545,11.516 -2.092,3.547 -4.517,6.91 -7.184,10.032 -2.727,-3.151 -5.152,-6.517 -7.212,-10.032 -2.183,-3.637 -4.063,-7.485 -5.547,-11.516 -1.484,-3.94 -2.606,-8.063 -3.394,-12.305 -0.729,-4.062 -1.122,-8.335 -1.122,-12.729 0,-4.396 0.393,-8.639 1.122,-12.699 0.788,-4.243 1.909,-8.396 3.394,-12.335 1.484,-3.97 3.334,-7.819 5.515,-11.486 2.122,-3.546 4.546,-6.909 7.214,-10.031 2.727,3.151 5.152,6.516 7.214,10.031 1.848,3.091 3.485,6.334 4.848,9.699 z m -48.673,93.497 c -0.091,0.333 -0.212,0.636 -0.363,0.909 1.971,1.848 3.88,3.849 5.668,5.971 2.727,3.211 5.182,6.727 7.365,10.485 2.181,3.759 3.969,7.668 5.394,11.608 1.455,4.029 2.517,8.151 3.213,12.305 0.697,4.242 1.03,8.546 0.969,12.729 -0.06,4.091 -0.484,8.213 -1.242,12.273 -3.91,-1.363 -7.667,-3.061 -11.243,-5.031 -3.697,-2.09 -7.244,-4.484 -10.548,-7.213 -3.213,-2.637 -6.212,-5.605 -9,-8.879 -2.699,-3.213 -5.183,-6.668 -7.334,-10.396 l -0.151,-0.272 c -2.153,-3.728 -3.941,-7.576 -5.334,-11.485 -1.455,-4.031 -2.517,-8.184 -3.213,-12.335 -0.727,-4.243 -1.03,-8.517 -0.971,-12.729 0.032,-4.092 0.457,-8.213 1.244,-12.273 3.848,1.363 7.637,3.061 11.213,5.061 2.576,1.424 5.061,3.031 7.456,4.788 1.939,-6.304 4.152,-12.456 6.666,-18.456 2.85,-6.819 6.031,-13.457 9.548,-19.852 1.03,-1.909 3.455,-2.605 5.364,-1.545 1.909,1.029 2.606,3.454 1.576,5.363 -3.394,6.184 -6.485,12.547 -9.183,19.063 -2.698,6.484 -5.094,13.152 -7.094,19.911 z m -2.848,100.527 c 0.151,0.667 0.121,1.333 -0.062,1.939 3.455,0.697 6.91,1.637 10.274,2.849 3.939,1.425 7.849,3.213 11.608,5.395 3.758,2.183 7.273,4.638 10.457,7.365 3.302,2.788 6.303,5.85 8.97,9.062 2.727,3.304 5.122,6.849 7.182,10.517 2.032,3.606 3.697,7.364 5.092,11.273 -4.092,0.758 -8.183,1.182 -12.274,1.242 -4.213,0.062 -8.486,-0.242 -12.729,-0.969 -4.182,-0.697 -8.304,-1.758 -12.334,-3.213 -3.971,-1.424 -7.851,-3.213 -11.64,-5.395 -3.697,-2.152 -7.212,-4.606 -10.425,-7.364 -3.302,-2.788 -6.303,-5.819 -8.97,-9.062 -2.729,-3.304 -5.122,-6.85 -7.214,-10.517 -2,-3.576 -3.697,-7.364 -5.061,-11.274 4.061,-0.758 8.182,-1.182 12.274,-1.242 2.302,-0.031 4.606,0.061 6.91,0.242 -1.576,-6.971 -2.82,-14.032 -3.638,-21.154 -0.879,-7.305 -1.363,-14.82 -1.425,-22.488 -0.03,-2.182 1.729,-3.97 3.91,-3.97 2.153,-0.03 3.941,1.728 3.971,3.909 0.06,7.214 0.545,14.427 1.393,21.609 0.851,7.244 2.124,14.337 3.731,21.246 z m 48.461,90.254 c 0.514,0.575 0.847,1.243 1,1.97 3.787,-1.395 7.728,-2.485 11.789,-3.213 4.092,-0.727 8.335,-1.121 12.729,-1.121 4.394,0 8.637,0.395 12.729,1.121 4.213,0.758 8.335,1.91 12.304,3.395 4,1.485 7.849,3.334 11.486,5.516 3.576,2.121 6.94,4.547 10.032,7.214 -3.092,2.667 -6.456,5.091 -10.002,7.212 -3.636,2.184 -7.516,4.031 -11.516,5.547 -3.969,1.455 -8.091,2.605 -12.304,3.364 -4.092,0.758 -8.335,1.121 -12.729,1.121 -4.394,0 -8.668,-0.363 -12.729,-1.121 -4.243,-0.759 -8.365,-1.909 -12.304,-3.364 -4.001,-1.484 -7.849,-3.363 -11.487,-5.516 -3.576,-2.122 -6.94,-4.546 -10.062,-7.243 3.122,-2.667 6.456,-5.063 10.002,-7.184 1.605,-0.969 3.272,-1.849 4.939,-2.667 -5.152,-5.516 -10.032,-11.305 -14.579,-17.396 -4.606,-6.183 -8.909,-12.638 -12.818,-19.336 -1.123,-1.849 -0.486,-4.272 1.394,-5.396 1.879,-1.09 4.304,-0.454 5.394,1.426 3.759,6.425 7.88,12.638 12.336,18.578 4.455,5.94 9.274,11.668 14.396,17.093 z m 240.181,36.551 c 1.88,-1.092 4.303,-0.425 5.395,1.454 1.062,1.909 0.395,4.334 -1.484,5.395 -15.124,8.546 -31.43,15.214 -48.582,19.73 -16.669,4.394 -34.156,6.697 -52.128,6.697 -18.002,0 -35.458,-2.304 -52.126,-6.697 l -0.212,-0.062 c -17.093,-4.485 -33.338,-11.153 -48.37,-19.669 -1.909,-1.061 -2.576,-3.485 -1.486,-5.395 1.062,-1.879 3.487,-2.546 5.396,-1.454 14.456,8.182 30.094,14.576 46.55,18.91 l 0.121,0.03 c 15.972,4.184 32.763,6.426 50.128,6.426 17.335,0 34.126,-2.242 50.098,-6.426 16.515,-4.332 32.183,-10.758 46.7,-18.939 z m 73.282,-72.222 c 1.092,-1.88 3.515,-2.516 5.395,-1.426 1.879,1.123 2.517,3.547 1.425,5.396 -3.939,6.698 -8.214,13.153 -12.851,19.336 -4.517,6.03 -9.335,11.789 -14.426,17.244 1.788,0.849 3.516,1.788 5.243,2.818 3.545,2.121 6.879,4.517 10.001,7.184 -3.122,2.697 -6.485,5.091 -10.062,7.243 -3.638,2.152 -7.486,4.031 -11.486,5.516 -3.939,1.455 -8.063,2.605 -12.305,3.364 -4.061,0.758 -8.336,1.121 -12.729,1.121 -4.393,0 -8.637,-0.363 -12.729,-1.121 -4.214,-0.759 -8.365,-1.909 -12.305,-3.364 -4.001,-1.516 -7.88,-3.363 -11.517,-5.547 -3.546,-2.121 -6.91,-4.545 -10.002,-7.212 3.092,-2.667 6.456,-5.093 10.063,-7.214 3.607,-2.182 7.455,-4.03 11.456,-5.516 3.939,-1.484 8.091,-2.637 12.335,-3.395 4.062,-0.727 8.305,-1.121 12.698,-1.121 4.393,0 8.669,0.395 12.729,1.121 3.909,0.697 7.728,1.728 11.395,3.062 0.151,-0.667 0.455,-1.304 0.939,-1.818 5.122,-5.425 9.94,-11.153 14.396,-17.093 4.457,-5.94 8.578,-12.153 12.337,-18.578 z m 26.852,-97.437 c 0.029,-2.182 1.817,-3.939 4.001,-3.909 2.151,0 3.909,1.788 3.909,3.97 -0.091,7.668 -0.575,15.184 -1.425,22.488 -0.848,7.152 -2.09,14.214 -3.697,21.184 2.484,-0.211 4.939,-0.303 7.395,-0.271 4.092,0.061 8.214,0.484 12.274,1.242 -1.363,3.91 -3.061,7.698 -5.061,11.274 -2.092,3.667 -4.485,7.213 -7.214,10.517 -2.667,3.242 -5.666,6.273 -8.971,9.062 -3.213,2.758 -6.728,5.212 -10.456,7.364 -3.757,2.182 -7.637,3.971 -11.605,5.395 -4.033,1.455 -8.153,2.516 -12.336,3.213 -4.243,0.727 -8.517,1.03 -12.729,0.969 -4.09,-0.061 -8.182,-0.484 -12.274,-1.242 1.396,-3.909 3.062,-7.667 5.093,-11.273 2.06,-3.668 4.455,-7.213 7.182,-10.517 2.667,-3.212 5.668,-6.273 8.971,-9.062 3.183,-2.728 6.697,-5.183 10.456,-7.365 3.759,-2.182 7.669,-3.97 11.607,-5.395 3.214,-1.15 6.516,-2.061 9.85,-2.758 -0.181,-0.637 -0.242,-1.334 -0.06,-2.03 1.576,-6.88 2.848,-14.002 3.697,-21.245 0.847,-7.185 1.333,-14.397 1.393,-21.611 z m -24.216,-96.649 c -1.06,-1.909 -0.363,-4.334 1.546,-5.363 1.909,-1.061 4.334,-0.364 5.364,1.545 3.517,6.395 6.728,13.032 9.578,19.852 2.516,6.092 4.788,12.335 6.728,18.729 2.484,-1.879 5.122,-3.576 7.819,-5.061 3.576,-2 7.364,-3.697 11.214,-5.061 0.788,4.061 1.182,8.182 1.242,12.273 0.06,4.213 -0.242,8.486 -0.97,12.729 -0.667,4.151 -1.759,8.273 -3.213,12.335 -1.394,3.879 -3.182,7.729 -5.333,11.485 l -0.152,0.272 c -2.151,3.729 -4.637,7.184 -7.333,10.365 -2.789,3.305 -5.789,6.273 -9.002,8.91 -3.305,2.729 -6.849,5.152 -10.546,7.184 -3.576,2 -7.335,3.697 -11.245,5.061 -0.758,-4.061 -1.183,-8.183 -1.242,-12.244 -0.062,-4.212 0.272,-8.516 0.969,-12.758 0.698,-4.153 1.758,-8.275 3.213,-12.305 1.425,-3.94 3.243,-7.85 5.395,-11.608 2.183,-3.759 4.667,-7.274 7.364,-10.485 1.729,-2.031 3.517,-3.91 5.396,-5.698 -0.242,-0.364 -0.424,-0.759 -0.545,-1.182 -2.001,-6.79 -4.364,-13.427 -7.062,-19.912 -2.729,-6.516 -5.79,-12.879 -9.185,-19.063 z M 364.438,83.312 c -1.817,-1.212 -2.304,-3.667 -1.092,-5.485 1.183,-1.789 3.638,-2.304 5.456,-1.092 5.455,3.607 10.729,7.486 15.82,11.607 4.061,3.273 8,6.729 11.789,10.305 1.395,-3.485 3.06,-6.818 4.971,-10.031 2.061,-3.485 4.485,-6.85 7.212,-10.001 2.667,3.122 5.093,6.485 7.214,10.031 2.182,3.667 4.03,7.517 5.516,11.486 1.484,3.939 2.605,8.092 3.394,12.335 0.728,4.061 1.123,8.304 1.123,12.699 0,4.394 -0.396,8.667 -1.123,12.729 -0.757,4.242 -1.909,8.364 -3.394,12.305 -1.515,4.03 -3.364,7.879 -5.547,11.516 -2.061,3.516 -4.485,6.881 -7.212,10.032 -2.668,-3.122 -5.093,-6.485 -7.183,-10.032 -2.184,-3.667 -4.063,-7.516 -5.547,-11.516 -1.484,-3.94 -2.605,-8.063 -3.394,-12.305 -0.728,-4.062 -1.123,-8.335 -1.123,-12.729 0,-4.396 0.396,-8.639 1.123,-12.729 0.333,-1.849 0.757,-3.667 1.242,-5.455 -4.485,-4.396 -9.185,-8.577 -14.032,-12.517 -4.88,-3.941 -9.94,-7.668 -15.213,-11.153 z M 74.887,469.481 c -2.183,0 -3.971,-1.759 -3.971,-3.939 0,-2.184 1.788,-3.972 3.971,-3.972 h 271.275 c 2.184,0 3.972,1.788 3.972,3.972 0,2.181 -1.788,3.939 -3.972,3.939 z m 158.838,16.518 c -2.183,0 -3.941,-1.788 -3.941,-3.972 0,-2.181 1.758,-3.969 3.941,-3.969 h 187.72 c 2.212,0 3.971,1.788 3.971,3.969 0,2.184 -1.759,3.972 -3.971,3.972 z m 206.934,0 c -2.181,0 -3.939,-1.788 -3.939,-3.972 0,-2.181 1.759,-3.969 3.939,-3.969 h 23.487 c 2.184,0 3.972,1.788 3.972,3.969 0,2.184 -1.788,3.972 -3.972,3.972 z M 64.188,485.482 c -2.183,0 -3.939,-1.756 -3.939,-3.939 0,-2.182 1.756,-3.97 3.939,-3.97 h 88.95 c 2.183,0 3.971,1.788 3.971,3.97 0,2.184 -1.788,3.939 -3.971,3.939 z M 141.38,198.417 h 225.938 0.089 1.698 L 259.393,148.138 V 115.77 h 34.52 V 92.191 h -34.52 v -4.122 h -7.454 v 58.493 L 139.5,198.417 h 1.788 z"
         style="clip-rule:evenodd;fill-rule:evenodd"
         id="path9393"
         inkscape:connector-curvature="0" /></g></g><g
     id="Layer_1"
     transform="translate(-36.82,-26.001)" /></svg>