<?xml version="1.0" encoding="UTF-8" standalone="no"?>
<!-- Created with Inkscape (http://www.inkscape.org/) -->

<svg
   xmlns:dc="http://purl.org/dc/elements/1.1/"
   xmlns:cc="http://creativecommons.org/ns#"
   xmlns:rdf="http://www.w3.org/1999/02/22-rdf-syntax-ns#"
   xmlns:svg="http://www.w3.org/2000/svg"
   xmlns="http://www.w3.org/2000/svg"
   xmlns:sodipodi="http://sodipodi.sourceforge.net/DTD/sodipodi-0.dtd"
   xmlns:inkscape="http://www.inkscape.org/namespaces/inkscape"
   width="155.17047mm"
   height="155.17058mm"
   viewBox="0 0 155.17047 155.17058"
   version="1.1"
   id="svg4766"
   sodipodi:docname="uni_network.svg"
   inkscape:version="0.92.3 (2405546, 2018-03-11)">
  <defs
     id="defs4760" />
  <sodipodi:namedview
     id="base"
     pagecolor="#ffffff"
     bordercolor="#666666"
     borderopacity="1.0"
     inkscape:pageopacity="0.0"
     inkscape:pageshadow="2"
     inkscape:zoom="1"
     inkscape:cx="293.23554"
     inkscape:cy="293.23574"
     inkscape:document-units="mm"
     inkscape:current-layer="layer1"
     showgrid="false"
     inkscape:window-width="2560"
     inkscape:window-height="1412"
     inkscape:window-x="4480"
     inkscape:window-y="0"
     inkscape:window-maximized="1"
     fit-margin-top="0"
     fit-margin-left="0"
     fit-margin-right="0"
     fit-margin-bottom="0" />
  <metadata
     id="metadata4763">
    <rdf:RDF>
      <cc:Work
         rdf:about="">
        <dc:format>image/svg+xml</dc:format>
        <dc:type
           rdf:resource="http://purl.org/dc/dcmitype/StillImage" />
        <dc:title></dc:title>
      </cc:Work>
    </rdf:RDF>
  </metadata>
  <g
     inkscape:label="Layer 1"
     inkscape:groupmode="layer"
     id="layer1"
     transform="translate(-27.010159,-14.779326)">
    <path
       style="fill:#000000;stroke-width:0.3792665"
       d="m 124.43313,148.90702 c -0.80652,-3.74762 -10.259,-36.83766 -10.259,-37.0527 -6.35253,-0.27397 -11.20376,-0.0932 -18.0518,-0.0104 l -6.972414,13.29401 c -4.585399,8.74273 -6.973152,13.67912 -6.974418,14.41889 l -0.0034,1.12489 H 56.141313 l 0.175045,-1.53394 c 1.162623,-10.18869 1.21363,-10.37419 3.266379,-11.8847 0.916236,-0.67424 2.536238,-1.64369 3.599984,-2.15435 2.455507,-1.17877 2.814406,-1.5082 2.808103,-2.57741 -0.0082,-1.37961 -0.980299,-4.26632 -1.730879,-5.13937 -0.816331,-0.94958 -1.322582,-3.58552 -0.804383,-4.1883 0.232303,-0.27025 0.248022,-0.87795 0.04407,-1.7052 -0.625198,-2.5357 -0.395374,-3.82169 1.001793,-5.60541 1.757227,-2.24337 2.96276,-2.91592 5.325009,-2.97071 2.368341,-0.0549 3.637462,0.77471 4.623221,3.02234 0.573055,1.30657 0.657927,2.2219 0.553644,5.97095 -0.128336,4.61412 -0.354836,5.85949 -1.065618,5.85949 -0.586692,0 -1.507544,3.63677 -1.275347,5.03674 0.159828,0.96365 0.573479,1.33827 2.543492,2.30351 2.998207,1.46904 4.765061,2.74132 5.239768,3.7731 0.205982,0.44774 0.563297,2.00368 0.793992,3.45765 0.230694,1.45397 0.574428,2.59958 0.763873,2.54579 0.442267,-0.12557 12.544521,-23.2278 12.405345,-23.68076 -0.05758,-0.18727 -8.925415,-7.34627 -19.70638,-15.908919 L 55.102305,79.733786 H 39.975022 v -1.152014 c 0,-2.065058 0.752744,-5.990466 1.280199,-6.675974 0.28339,-0.368323 1.473916,-1.170108 2.645585,-1.781741 l 2.130342,-1.112069 -0.226554,-1.695155 c -0.124591,-0.932335 -0.474813,-1.913283 -0.778273,-2.179878 -0.384482,-0.33782 -0.590411,-1.363442 -0.679397,-3.384035 -0.118077,-2.681103 -0.05583,-2.992583 0.827171,-4.138762 1.793808,-2.328402 4.971305,-2.336694 6.149806,-0.01604 0.771732,1.519615 0.6147,6.801911 -0.224075,7.538846 -0.30346,0.266597 -0.650913,1.227501 -0.772154,2.135339 l -0.220408,1.65062 1.853887,1.008184 c 3.09835,1.684945 3.387911,2.096292 3.857053,5.47921 l 0.419507,3.024922 19.033972,15.101991 c 10.468696,8.30609 19.213001,15.22218 19.4318,15.36909 l 20.349807,0.18832 6.94517,-8.93459 c 3.81984,-4.914042 6.94516,-9.134456 6.94516,-9.378704 0,-0.244262 -3.41935,-7.799797 -7.59853,-16.790082 L 113.74653,57.645272 H 98.258843 l 0.243142,-2.499754 c 0.451947,-4.64676 0.784076,-5.296929 3.492115,-6.836109 l 2.41365,-1.371843 -0.22943,-1.668677 c -0.12614,-0.917776 -0.46226,-1.867837 -0.74683,-2.111249 -0.33955,-0.290367 -0.57503,-1.452379 -0.68477,-3.378928 -0.16547,-2.903679 -0.15377,-2.952617 1.05232,-4.39725 1.07335,-1.28566 1.42758,-1.46089 2.95286,-1.46089 1.50354,0 1.85387,0.166711 2.64314,1.25786 0.82662,1.142654 0.90042,1.534061 0.80586,4.273453 -0.0713,2.064372 -0.28358,3.248182 -0.67309,3.75296 -0.31295,0.405552 -0.67745,1.417383 -0.81001,2.248515 l -0.24106,1.51115 2.23331,1.18091 c 1.2283,0.649501 2.43591,1.467666 2.68357,1.818142 0.24765,0.350475 0.62143,1.808078 0.83063,3.239115 0.32025,2.190788 1.55311,5.133617 7.8029,18.625606 4.0824,8.813046 7.52527,15.949873 7.65081,15.859616 0.12554,-0.09025 0.32577,-0.873407 0.44496,-1.740342 0.26141,-1.901581 0.85061,-2.569494 3.52125,-3.991715 2.03936,-1.086019 2.04352,-1.091913 1.80774,-2.553896 -0.12998,-0.805949 -0.51633,-1.879395 -0.85853,-2.385437 -0.44385,-0.656384 -0.63383,-1.715069 -0.66283,-3.693984 -0.039,-2.661365 0.009,-2.828217 1.17942,-4.112501 0.96579,-1.059635 1.5178,-1.33859 2.64899,-1.33859 1.84275,0 2.73694,0.57946 3.30065,2.138845 0.59111,1.63527 0.31715,6.467219 -0.40454,7.135138 -0.28495,0.263716 -0.60305,1.216488 -0.70694,2.117271 l -0.18883,1.637789 2.48201,1.453924 c 2.30638,1.351043 2.51472,1.584213 2.94398,3.29517 l 0.46194,1.841247 4.09825,-8.684811 c 3.33487,-7.067195 4.1684,-9.171969 4.47494,-11.300296 0.45124,-3.132971 0.85466,-3.711838 3.57749,-5.133186 1.47893,-0.772019 2.09133,-1.316761 2.09133,-1.860237 0,-1.02953 -0.65839,-2.990966 -1.11391,-3.318425 -0.2016,-0.144943 -0.43264,-1.589489 -0.51342,-3.210092 -0.14464,-2.902193 -0.12873,-2.967642 1.05673,-4.346566 1.04452,-1.215006 1.43246,-1.400003 2.93573,-1.400003 1.40779,0 1.89176,0.197775 2.58466,1.056311 0.76395,0.94658 0.84829,1.39451 0.81185,4.311967 -0.0309,2.466443 -0.17716,3.375487 -0.60368,3.749985 -0.30966,0.271883 -0.66495,1.257149 -0.78956,2.189484 l -0.22656,1.695155 2.13035,1.112065 c 1.17167,0.611636 2.36654,1.415686 2.65526,1.786777 0.49034,0.630243 1.26187,4.830767 1.26786,6.902603 l 0.003,0.920354 h -15.3968 l -4.4337,9.328132 c -2.43852,5.130475 -4.43367,9.54818 -4.43367,9.817115 -5.33271,0.911751 -8.67184,0.488985 -15.09389,0.488985 l -7.48626,9.636015 c -4.1175,5.29982 -7.53516,9.79593 -7.59487,9.99139 -0.11584,0.37922 8.92009,31.71216 9.38659,33.06717 0.20827,0.60497 0.32918,0.28779 0.48914,-1.28336 0.42335,-4.15819 0.84848,-4.76562 4.97652,-7.11094 3.47093,-1.972 3.71817,-2.19262 3.71817,-3.3177 0,-1.93628 -0.74705,-4.83985 -1.24528,-4.83985 -0.70925,0 -1.12789,-2.2971 -1.169,-6.41421 l -0.0375,-3.7554 1.48961,-1.82256 c 1.94574,-2.38068 2.60816,-2.73351 5.13187,-2.73351 1.73973,0 2.28987,0.1799 3.16274,1.03425 1.62201,1.58758 2.34111,4.18978 1.88947,6.83755 -0.23704,1.38979 -0.24633,2.31958 -0.0261,2.62993 0.46812,0.66006 -0.26149,3.68123 -1.00609,4.16592 -0.64097,0.41725 -1.49457,3.3034 -1.5029,5.08168 -0.003,0.72262 0.2192,1.2259 0.61006,1.3794 2.10644,0.82722 6.46988,3.56675 7.05193,4.42746 0.72848,1.07727 1.33402,4.1807 1.7777,9.11051 l 0.26684,2.96559 h -25.80406 l -0.37412,-1.73845 z"
       id="path4749"
       inkscape:connector-curvature="0"
       sodipodi:nodetypes="ccccccccccccccccccscccscccccscccccscccccsccsccssccccccccccsccccccccscccccccsccccsccccsscccsccccccccccccccccccsscccscccccccccccc" />
    <g
       id="_x32_38_x2C__bank_x2C__banking_x2C__online_x2C__university_x2C__building_x2C__education"
       transform="matrix(0.11098107,0,0,0.12909378,49.4256,-50.725181)">
      <g
         id="g9395">
        <path
           d="m 606.39652,1111.237 h -218.482 v 19.123 h 17.7 0.121 41.126 0.091 30.306 41.308 30.307 0.091 41.126 0.092 16.214 z m -167.596,98.86 v -62.251 h -25.033 v 62.251 z m 71.614,0 v -62.251 h -25.033 v 62.251 z m -29.337,-72.282 v 2.576 h 0.486 0.091 32.488 0.091 0.516 v -2.576 z m 71.615,0 v 2.576 h 0.486 0.092 32.486 0.092 0.516 v -2.576 z m -143.23,0 v 2.576 h 0.486 0.089 32.489 0.091 0.516 v -2.576 z m 41.096,0 v 6.305 c 0,2.061 -1.667,3.727 -3.697,3.727 h -0.605 v 62.251 h 31.67 v -62.251 h -0.576 c -2.06,0 -3.727,-1.666 -3.727,-3.727 v -6.305 z m 131.472,72.282 v -62.251 h -25.033 v 62.251 z m -32.49,0 v -62.251 h -0.576 c -2.06,0 -3.727,-1.666 -3.727,-3.727 v -6.305 h -23.033 v 6.305 c 0,2.061 -1.698,3.727 -3.729,3.727 h -0.605 v 62.251 z m -152.108,13.305 h 199.449 v -5.849 h -11.032 -0.092 -32.486 -0.092 -38.945 -0.091 -32.488 -0.091 -38.945 -0.091 -32.491 -0.089 -12.517 v 5.849 z m -13.245,-119.621 h 225.938 0.089 1.698 l -109.712,-50.279 v -32.368 h 34.52 v -23.57901 h -34.52 v -4.122 h -7.454 v 58.49301 l -112.439,51.855 h 1.788 z"
           style="clip-rule:evenodd;fill-rule:evenodd"
           id="path9393"
           inkscape:connector-curvature="0"
           sodipodi:nodetypes="cccccccccccccccccccccccccccccccccccccccccccccccccccccssccccsscccccccccssccsscccccccccccccccccccccccccccccccccccc" />
      </g>
    </g>
    <path
       style="opacity:1;fill:none;fill-opacity:1;fill-rule:nonzero;stroke:#000005;stroke-width:2;stroke-linejoin:miter;stroke-miterlimit:4;stroke-dasharray:none;stroke-opacity:0.97706419;paint-order:normal"
       id="path13903"
       sodipodi:type="arc"
       sodipodi:cx="104.59545"
       sodipodi:cy="92.364563"
       sodipodi:rx="77.105453"
       sodipodi:ry="77.105453"
       sodipodi:start="0.20174213"
       sodipodi:end="0.20173039"
       sodipodi:open="true"
       d="M 180.13713,107.81468 A 77.105453,77.105453 0 0 1 89.145557,167.90628 77.105453,77.105453 0 0 1 29.053684,76.914891 77.105453,77.105453 0 0 1 120.0449,16.82275 a 77.105453,77.105453 0 0 1 60.09241,90.99104" />
  </g>
</svg>
