<?xml version="1.0" encoding="UTF-8" standalone="no"?>
<!-- Created with Inkscape (http://www.inkscape.org/) -->

<svg
   xmlns:dc="http://purl.org/dc/elements/1.1/"
   xmlns:cc="http://creativecommons.org/ns#"
   xmlns:rdf="http://www.w3.org/1999/02/22-rdf-syntax-ns#"
   xmlns:svg="http://www.w3.org/2000/svg"
   xmlns="http://www.w3.org/2000/svg"
   xmlns:sodipodi="http://sodipodi.sourceforge.net/DTD/sodipodi-0.dtd"
   xmlns:inkscape="http://www.inkscape.org/namespaces/inkscape"
   sodipodi:docname="regio.svg"
   viewBox="0 0 232.96001 80"
   height="80"
   width="232.96001"
   id="svg2"
   version="1.1"
   inkscape:version="0.92.3 (2405546, 2018-03-11)">
  <metadata
     id="metadata8">
    <rdf:RDF>
      <cc:Work
         rdf:about="">
        <dc:format>image/svg+xml</dc:format>
        <dc:type
           rdf:resource="http://purl.org/dc/dcmitype/StillImage" />
      </cc:Work>
    </rdf:RDF>
  </metadata>
  <defs
     id="defs6" />
  <sodipodi:namedview
     inkscape:snap-bbox-edge-midpoints="true"
     inkscape:bbox-paths="true"
     inkscape:snap-bbox="true"
     showguides="true"
     inkscape:current-layer="svg2"
     inkscape:window-maximized="1"
     inkscape:window-y="27"
     inkscape:window-x="67"
     inkscape:cy="51.32794"
     inkscape:cx="81.057444"
     inkscape:zoom="3.7946427"
     showgrid="false"
     id="namedview4"
     inkscape:window-height="713"
     inkscape:window-width="1299"
     inkscape:pageshadow="2"
     inkscape:pageopacity="0"
     guidetolerance="10"
     gridtolerance="10"
     objecttolerance="10"
     borderopacity="1"
     bordercolor="#666666"
     pagecolor="#ffffff"
     inkscape:measure-start="193.471,34.1474"
     inkscape:measure-end="187.671,36.4767" />
  <path
     style="fill:none;stroke:#0000ff;stroke-width:1px;stroke-linecap:butt;stroke-linejoin:miter;stroke-opacity:1"
     d="M 131.9953,37.110587 H 23.091765 v 28.757648 h 78.992945"
     id="path3737"
     inkscape:connector-curvature="0" />
  <path
     style="fill:none;stroke:#0000fd;stroke-width:1.00245082px;stroke-linecap:butt;stroke-linejoin:miter;stroke-opacity:1"
     d="m 132.769,65.867365 h 6.59811 l 10.61653,-50.62638"
     id="path3739"
     inkscape:connector-curvature="0" />
  <path
     style="fill:none;stroke:#0000ff;stroke-width:1.00173271px;stroke-linecap:butt;stroke-linejoin:miter;stroke-opacity:1"
     d="m 152.25091,15.154183 12.66438,50.696655 h 45.13332 V 37.060552 h -37.59735"
     id="path3741"
     inkscape:connector-curvature="0" />
  <ellipse
     style="fill:#0000ff;stroke-width:1.37233412"
     id="path3745"
     cx="151.03136"
     cy="11.448907"
     rx="4.7284651"
     ry="3.9830911" />
  <path
     style="fill:none;stroke:#000000;stroke-width:1.00045276px;stroke-linecap:butt;stroke-linejoin:miter;stroke-opacity:1"
     d="M 151.6113,61.355294 V 43.155293"
     id="path3751"
     inkscape:connector-curvature="0" />
  <path
     style="fill:#000000;stroke:#000000;stroke-opacity:1"
     d="M 37.734547,61.738343 V 43.103999"
     id="path3753"
     inkscape:connector-curvature="0" />
  <path
     style="fill:none;stroke:#000000;stroke-width:1px;stroke-linecap:butt;stroke-linejoin:miter;stroke-opacity:1"
     d="m 46.399517,43.849373 -3.447354,-0.139758 c -0.98827,0.197654 -1.816849,0.465858 -5.077859,5.17103"
     id="path4564"
     inkscape:connector-curvature="0"
     sodipodi:nodetypes="ccc" />
  <path
     style="fill:none;stroke:#000000;stroke-width:1px;stroke-linecap:butt;stroke-linejoin:miter;stroke-opacity:1"
     d="m 70.624164,51.862141 13.929172,-0.04659 c 0.141147,1.483157 1.733414,-10.845034 -8.944486,-7.966183 -6.413926,1.729249 -5.714195,9.951696 -4.332484,13.276971 2.97257,7.153888 13.804593,3.233396 13.416728,2.748566"
     id="path4570"
     inkscape:connector-curvature="0"
     sodipodi:nodetypes="ccssc" />
  <path
     style="fill:none;stroke:#000000;stroke-width:1px;stroke-linecap:butt;stroke-linejoin:miter;stroke-opacity:1"
     d="m 125.68865,43.66303 -8.94449,-0.186344 c -0.42645,0.135687 -1.9021,0.234855 -3.72686,1.583919 -1.64915,1.219235 -1.90681,4.643152 -1.16465,6.661778 0.6312,1.716822 2.3714,3.146155 5.40396,2.981495 1.60802,-0.08731 3.166,0.622886 5.03127,-2.236121 1.52691,-2.340389 1.38971,-4.278782 0.55904,-5.823232 -1.07245,-1.993982 -1.25785,-2.562223 -4.09956,-3.121253"
     id="path4572"
     inkscape:connector-curvature="0"
     sodipodi:nodetypes="ccsssssc" />
  <path
     style="fill:none;stroke:#000000;stroke-width:1px;stroke-linecap:butt;stroke-linejoin:miter;stroke-opacity:1"
     d="m 113.48315,59.641979 6.84813,0.232929 c 0,0 0.93171,-0.09317 2.32929,0.419273 1.39552,0.511691 1.86343,0.652202 2.00319,2.003192 0.13976,1.35099 0.0932,0.512444 -0.13976,3.074667 -0.36235,0.648684 -0.21194,0.925552 -1.39757,2.422465 -1.08799,0.891781 -0.88255,1.073541 -3.02808,1.071474 -2.14295,-0.0021 -6.28909,-0.04658 -6.28909,-0.04658 0,0 -0.97831,0.09317 -1.95661,-0.559031 -0.9783,-0.652202 -1.49075,-1.071474 -1.44416,-2.096363 -0.37777,-1.024889 -0.27115,-2.93491 0.0466,-2.93491 0.4967,-2.104158 2.95289,-3.596513 3.02806,-3.587116 z"
     id="path4574"
     inkscape:connector-curvature="0"
     sodipodi:nodetypes="ccssccscsccc" />
  <path
     style="fill:none;stroke:#000000;stroke-width:1px;stroke-linecap:butt;stroke-linejoin:miter;stroke-opacity:1"
     d="m 112.78437,53.352888 c 0,0 -1.77027,0.419273 -2.04978,1.723677 -0.27952,1.304404 -0.18634,1.91002 0.18634,2.515636 0.37269,0.605617 0.69879,1.071475 1.35099,1.537334 0.6522,0.465858 0.6522,0.465858 0.6522,0.465858"
     id="path4576"
     inkscape:connector-curvature="0" />
  <path
     style="fill:none;stroke:#000000;stroke-width:1px;stroke-linecap:butt;stroke-linejoin:miter;stroke-opacity:1"
     d="m 186.94905,43.59315 c 1.98246,-0.03172 4.04966,0.63968 5.54373,2.119658 1.49407,1.479978 2.37283,4.784241 2.44575,6.219212 0.0729,1.434971 -0.009,2.773384 -0.53571,4.169434 -0.52646,1.39605 -1.3394,2.98974 -2.6554,3.936505 -1.316,0.946765 -3.01582,1.307205 -4.79834,1.327697 -1.78252,0.02049 -4.19379,-0.350289 -5.54371,-1.397576 -1.34992,-1.047287 -1.73885,-2.621107 -2.16624,-3.983091 -0.42739,-1.361984 -0.41453,-2.725964 -0.44257,-4.006385 -0.028,-1.280421 1.16023,-4.605971 2.6554,-6.079453 1.49517,-1.473482 3.51462,-2.274281 5.49709,-2.306001 z"
     id="path4578"
     inkscape:connector-curvature="0"
     sodipodi:nodetypes="zzzzzzzzzzz" />
</svg>
