<?xml version="1.0" encoding="utf-8" standalone="no"?>
<!DOCTYPE svg PUBLIC "-//W3C//DTD SVG 1.1//EN"
  "http://www.w3.org/Graphics/SVG/1.1/DTD/svg11.dtd">
<!-- Created with matplotlib (https://matplotlib.org/) -->
<svg height="345.6pt" version="1.1" viewBox="0 0 460.8 345.6" width="460.8pt" xmlns="http://www.w3.org/2000/svg" xmlns:xlink="http://www.w3.org/1999/xlink">
 <defs>
  <style type="text/css">
*{stroke-linecap:butt;stroke-linejoin:round;}
  </style>
 </defs>
 <g id="figure_1">
  <g id="patch_1">
   <path d="M 0 345.6 
L 460.8 345.6 
L 460.8 0 
L 0 0 
z
" style="fill:#ffffff;"/>
  </g>
  <g id="axes_1">
   <g id="patch_2">
    <path d="M 57.6 307.584 
L 414.72 307.584 
L 414.72 41.472 
L 57.6 41.472 
z
" style="fill:#ffffff;"/>
   </g>
   <g id="PolyCollection_1">
    <path clip-path="url(#p7cd6c4b95d)" d="M 57.6 286.59892 
L 57.6 307.584 
L 78.607059 307.584 
L 131.124706 307.584 
L 157.383529 307.584 
L 194.145882 307.584 
L 220.404706 307.584 
L 257.167059 307.584 
L 288.677647 307.584 
L 320.188235 307.584 
L 351.698824 307.584 
L 383.209412 307.584 
L 414.72 307.584 
L 414.72 254.626769 
L 414.72 254.626769 
L 383.209412 254.048101 
L 351.698824 254.727485 
L 320.188235 255.198913 
L 288.677647 248.449127 
L 257.167059 254.495536 
L 220.404706 253.292358 
L 194.145882 255.108107 
L 157.383529 250.988875 
L 131.124706 242.449868 
L 78.607059 218.162825 
L 57.6 286.59892 
z
" style="fill:#1f77b4;"/>
   </g>
   <g id="PolyCollection_2">
    <path clip-path="url(#p7cd6c4b95d)" d="M 57.6 265.613839 
L 57.6 286.59892 
L 78.607059 218.162825 
L 131.124706 242.449868 
L 157.383529 250.988875 
L 194.145882 255.108107 
L 220.404706 253.292358 
L 257.167059 254.495536 
L 288.677647 248.449127 
L 320.188235 255.198913 
L 351.698824 254.727485 
L 383.209412 254.048101 
L 414.72 254.626769 
L 414.72 201.669538 
L 414.72 201.669538 
L 383.209412 200.512201 
L 351.698824 201.87097 
L 320.188235 202.813825 
L 288.677647 189.314254 
L 257.167059 201.407072 
L 220.404706 199.000717 
L 194.145882 202.632214 
L 157.383529 194.393751 
L 131.124706 177.315735 
L 78.607059 128.74165 
L 57.6 265.613839 
z
" style="fill:#ff7f0e;"/>
   </g>
   <g id="PolyCollection_3">
    <path clip-path="url(#p7cd6c4b95d)" d="M 57.6 251.694684 
L 57.6 265.613839 
L 78.607059 128.74165 
L 131.124706 177.315735 
L 157.383529 194.393751 
L 194.145882 202.632214 
L 220.404706 199.000717 
L 257.167059 201.407072 
L 288.677647 189.314254 
L 320.188235 202.813825 
L 351.698824 201.87097 
L 383.209412 200.512201 
L 414.72 201.669538 
L 414.72 201.543877 
L 414.72 201.543877 
L 383.209412 200.174461 
L 351.698824 201.606257 
L 320.188235 202.674383 
L 288.677647 189.024963 
L 257.167059 201.290253 
L 220.404706 198.361109 
L 194.145882 198.704769 
L 157.383529 192.889187 
L 131.124706 175.502785 
L 78.607059 122.623883 
L 57.6 251.694684 
z
" style="fill:#2ca02c;"/>
   </g>
   <g id="PolyCollection_4">
    <path clip-path="url(#p7cd6c4b95d)" d="M 57.6 249.076032 
L 57.6 251.694684 
L 78.607059 122.623883 
L 131.124706 175.502785 
L 157.383529 192.889187 
L 194.145882 198.704769 
L 220.404706 198.361109 
L 257.167059 201.290253 
L 288.677647 189.024963 
L 320.188235 202.674383 
L 351.698824 201.606257 
L 383.209412 200.174461 
L 414.72 201.543877 
L 414.72 163.058345 
L 414.72 163.058345 
L 383.209412 160.942439 
L 351.698824 161.518792 
L 320.188235 162.963861 
L 288.677647 144.269857 
L 257.167059 160.627836 
L 220.404706 157.030187 
L 194.145882 157.784018 
L 157.383529 149.483243 
L 131.124706 126.229031 
L 78.607059 51.54885 
L 57.6 249.076032 
z
" style="fill:#d62728;"/>
   </g>
   <g id="PolyCollection_5">
    <path clip-path="url(#p7cd6c4b95d)" d="M 57.6 247.955585 
L 57.6 249.076032 
L 78.607059 51.54885 
L 131.124706 126.229031 
L 157.383529 149.483243 
L 194.145882 157.784018 
L 220.404706 157.030187 
L 257.167059 160.627836 
L 288.677647 144.269857 
L 320.188235 162.963861 
L 351.698824 161.518792 
L 383.209412 160.942439 
L 414.72 163.058345 
L 414.72 157.934009 
L 414.72 157.934009 
L 383.209412 155.209423 
L 351.698824 156.773905 
L 320.188235 161.453329 
L 288.677647 142.602456 
L 257.167059 158.633366 
L 220.404706 155.122179 
L 194.145882 155.97687 
L 157.383529 147.595955 
L 131.124706 120.398204 
L 78.607059 49.419203 
L 57.6 247.955585 
z
" style="fill:#9467bd;"/>
   </g>
   <g id="PolyCollection_6">
    <path clip-path="url(#p7cd6c4b95d)" d="M 57.6 246.895285 
L 57.6 247.955585 
L 78.607059 49.419203 
L 131.124706 120.398204 
L 157.383529 147.595955 
L 194.145882 155.97687 
L 220.404706 155.122179 
L 257.167059 158.633366 
L 288.677647 142.602456 
L 320.188235 161.453329 
L 351.698824 156.773905 
L 383.209412 155.209423 
L 414.72 157.934009 
L 414.72 157.637861 
L 414.72 157.637861 
L 383.209412 155.061434 
L 351.698824 155.215962 
L 320.188235 156.88528 
L 288.677647 141.659601 
L 257.167059 158.100276 
L 220.404706 154.052991 
L 194.145882 155.222741 
L 157.383529 147.423635 
L 131.124706 120.106042 
L 78.607059 49.07314 
L 57.6 246.895285 
z
" style="fill:#8c564b;"/>
   </g>
   <g id="PolyCollection_7">
    <path clip-path="url(#p7cd6c4b95d)" d="M 57.6 246.160495 
L 57.6 246.895285 
L 78.607059 49.07314 
L 131.124706 120.106042 
L 157.383529 147.423635 
L 194.145882 155.222741 
L 220.404706 154.052991 
L 257.167059 158.100276 
L 288.677647 141.659601 
L 320.188235 156.88528 
L 351.698824 155.215962 
L 383.209412 155.061434 
L 414.72 157.637861 
L 414.72 157.514092 
L 414.72 157.514092 
L 383.209412 154.952646 
L 351.698824 155.082678 
L 320.188235 156.713419 
L 288.677647 141.502499 
L 257.167059 157.909818 
L 220.404706 153.905589 
L 194.145882 155.064164 
L 157.383529 147.323457 
L 131.124706 119.754148 
L 78.607059 48.847489 
L 57.6 246.160495 
z
" style="fill:#e377c2;"/>
   </g>
   <g id="PolyCollection_8">
    <path clip-path="url(#p7cd6c4b95d)" d="M 57.6 245.766742 
L 57.6 246.160495 
L 78.607059 48.847489 
L 131.124706 119.754148 
L 157.383529 147.323457 
L 194.145882 155.064164 
L 220.404706 153.905589 
L 257.167059 157.909818 
L 288.677647 141.502499 
L 320.188235 156.713419 
L 351.698824 155.082678 
L 383.209412 154.952646 
L 414.72 157.514092 
L 414.72 156.888565 
L 414.72 156.888565 
L 383.209412 154.400294 
L 351.698824 154.746468 
L 320.188235 156.203986 
L 288.677647 141.287565 
L 257.167059 157.729417 
L 220.404706 153.798234 
L 194.145882 155.042387 
L 157.383529 147.302185 
L 131.124706 119.706321 
L 78.607059 48.81777 
L 57.6 245.766742 
z
" style="fill:#7f7f7f;"/>
   </g>
   <g id="PolyCollection_9">
    <path clip-path="url(#p7cd6c4b95d)" d="M 57.6 245.565106 
L 57.6 245.766742 
L 78.607059 48.81777 
L 131.124706 119.706321 
L 157.383529 147.302185 
L 194.145882 155.042387 
L 220.404706 153.798234 
L 257.167059 157.729417 
L 288.677647 141.287565 
L 320.188235 156.203986 
L 351.698824 154.746468 
L 383.209412 154.400294 
L 414.72 156.888565 
L 414.72 156.716506 
L 414.72 156.716506 
L 383.209412 154.184628 
L 351.698824 154.621075 
L 320.188235 156.042613 
L 288.677647 141.138364 
L 257.167059 157.509712 
L 220.404706 153.648223 
L 194.145882 154.830849 
L 157.383529 147.100749 
L 131.124706 118.801117 
L 78.607059 48.423515 
L 57.6 245.565106 
z
" style="fill:#bcbd22;"/>
   </g>
   <g id="PolyCollection_10">
    <path clip-path="url(#p7cd6c4b95d)" d="M 57.6 244.679506 
L 57.6 245.565106 
L 78.607059 48.423515 
L 131.124706 118.801117 
L 157.383529 147.100749 
L 194.145882 154.830849 
L 220.404706 153.648223 
L 257.167059 157.509712 
L 288.677647 141.138364 
L 320.188235 156.042613 
L 351.698824 154.621075 
L 383.209412 154.184628 
L 414.72 156.716506 
L 414.72 150.702549 
L 414.72 150.702549 
L 383.209412 147.823375 
L 351.698824 149.796127 
L 320.188235 151.047547 
L 288.677647 131.198034 
L 257.167059 149.325707 
L 220.404706 145.322973 
L 194.145882 151.248088 
L 157.383529 138.895904 
L 131.124706 113.706389 
L 78.607059 41.472 
L 57.6 244.679506 
z
" style="fill:#17becf;"/>
   </g>
   <g id="matplotlib.axis_1">
    <g id="xtick_1">
     <g id="line2d_1">
      <defs>
       <path d="M 0 0 
L 0 3.5 
" id="m8c8633e7f2" style="stroke:#000000;stroke-width:0.8;"/>
      </defs>
      <g>
       <use style="stroke:#000000;stroke-width:0.8;" x="73.355294" xlink:href="#m8c8633e7f2" y="307.584"/>
      </g>
     </g>
     <g id="text_1">
      <!-- 2013 -->
      <defs>
       <path d="M 19.1875 8.296875 
L 53.609375 8.296875 
L 53.609375 0 
L 7.328125 0 
L 7.328125 8.296875 
Q 12.9375 14.109375 22.625 23.890625 
Q 32.328125 33.6875 34.8125 36.53125 
Q 39.546875 41.84375 41.421875 45.53125 
Q 43.3125 49.21875 43.3125 52.78125 
Q 43.3125 58.59375 39.234375 62.25 
Q 35.15625 65.921875 28.609375 65.921875 
Q 23.96875 65.921875 18.8125 64.3125 
Q 13.671875 62.703125 7.8125 59.421875 
L 7.8125 69.390625 
Q 13.765625 71.78125 18.9375 73 
Q 24.125 74.21875 28.421875 74.21875 
Q 39.75 74.21875 46.484375 68.546875 
Q 53.21875 62.890625 53.21875 53.421875 
Q 53.21875 48.921875 51.53125 44.890625 
Q 49.859375 40.875 45.40625 35.40625 
Q 44.1875 33.984375 37.640625 27.21875 
Q 31.109375 20.453125 19.1875 8.296875 
z
" id="DejaVuSans-50"/>
       <path d="M 31.78125 66.40625 
Q 24.171875 66.40625 20.328125 58.90625 
Q 16.5 51.421875 16.5 36.375 
Q 16.5 21.390625 20.328125 13.890625 
Q 24.171875 6.390625 31.78125 6.390625 
Q 39.453125 6.390625 43.28125 13.890625 
Q 47.125 21.390625 47.125 36.375 
Q 47.125 51.421875 43.28125 58.90625 
Q 39.453125 66.40625 31.78125 66.40625 
z
M 31.78125 74.21875 
Q 44.046875 74.21875 50.515625 64.515625 
Q 56.984375 54.828125 56.984375 36.375 
Q 56.984375 17.96875 50.515625 8.265625 
Q 44.046875 -1.421875 31.78125 -1.421875 
Q 19.53125 -1.421875 13.0625 8.265625 
Q 6.59375 17.96875 6.59375 36.375 
Q 6.59375 54.828125 13.0625 64.515625 
Q 19.53125 74.21875 31.78125 74.21875 
z
" id="DejaVuSans-48"/>
       <path d="M 12.40625 8.296875 
L 28.515625 8.296875 
L 28.515625 63.921875 
L 10.984375 60.40625 
L 10.984375 69.390625 
L 28.421875 72.90625 
L 38.28125 72.90625 
L 38.28125 8.296875 
L 54.390625 8.296875 
L 54.390625 0 
L 12.40625 0 
z
" id="DejaVuSans-49"/>
       <path d="M 40.578125 39.3125 
Q 47.65625 37.796875 51.625 33 
Q 55.609375 28.21875 55.609375 21.1875 
Q 55.609375 10.40625 48.1875 4.484375 
Q 40.765625 -1.421875 27.09375 -1.421875 
Q 22.515625 -1.421875 17.65625 -0.515625 
Q 12.796875 0.390625 7.625 2.203125 
L 7.625 11.71875 
Q 11.71875 9.328125 16.59375 8.109375 
Q 21.484375 6.890625 26.8125 6.890625 
Q 36.078125 6.890625 40.9375 10.546875 
Q 45.796875 14.203125 45.796875 21.1875 
Q 45.796875 27.640625 41.28125 31.265625 
Q 36.765625 34.90625 28.71875 34.90625 
L 20.21875 34.90625 
L 20.21875 43.015625 
L 29.109375 43.015625 
Q 36.375 43.015625 40.234375 45.921875 
Q 44.09375 48.828125 44.09375 54.296875 
Q 44.09375 59.90625 40.109375 62.90625 
Q 36.140625 65.921875 28.71875 65.921875 
Q 24.65625 65.921875 20.015625 65.03125 
Q 15.375 64.15625 9.8125 62.3125 
L 9.8125 71.09375 
Q 15.4375 72.65625 20.34375 73.4375 
Q 25.25 74.21875 29.59375 74.21875 
Q 40.828125 74.21875 47.359375 69.109375 
Q 53.90625 64.015625 53.90625 55.328125 
Q 53.90625 49.265625 50.4375 45.09375 
Q 46.96875 40.921875 40.578125 39.3125 
z
" id="DejaVuSans-51"/>
      </defs>
      <g transform="translate(60.630294 322.182437)scale(0.1 -0.1)">
       <use xlink:href="#DejaVuSans-50"/>
       <use x="63.623047" xlink:href="#DejaVuSans-48"/>
       <use x="127.246094" xlink:href="#DejaVuSans-49"/>
       <use x="190.869141" xlink:href="#DejaVuSans-51"/>
      </g>
     </g>
    </g>
    <g id="xtick_2">
     <g id="line2d_2">
      <g>
       <use style="stroke:#000000;stroke-width:0.8;" x="136.376471" xlink:href="#m8c8633e7f2" y="307.584"/>
      </g>
     </g>
     <g id="text_2">
      <!-- 2014 -->
      <defs>
       <path d="M 37.796875 64.3125 
L 12.890625 25.390625 
L 37.796875 25.390625 
z
M 35.203125 72.90625 
L 47.609375 72.90625 
L 47.609375 25.390625 
L 58.015625 25.390625 
L 58.015625 17.1875 
L 47.609375 17.1875 
L 47.609375 0 
L 37.796875 0 
L 37.796875 17.1875 
L 4.890625 17.1875 
L 4.890625 26.703125 
z
" id="DejaVuSans-52"/>
      </defs>
      <g transform="translate(123.651471 322.182437)scale(0.1 -0.1)">
       <use xlink:href="#DejaVuSans-50"/>
       <use x="63.623047" xlink:href="#DejaVuSans-48"/>
       <use x="127.246094" xlink:href="#DejaVuSans-49"/>
       <use x="190.869141" xlink:href="#DejaVuSans-52"/>
      </g>
     </g>
    </g>
    <g id="xtick_3">
     <g id="line2d_3">
      <g>
       <use style="stroke:#000000;stroke-width:0.8;" x="199.397647" xlink:href="#m8c8633e7f2" y="307.584"/>
      </g>
     </g>
     <g id="text_3">
      <!-- 2015 -->
      <defs>
       <path d="M 10.796875 72.90625 
L 49.515625 72.90625 
L 49.515625 64.59375 
L 19.828125 64.59375 
L 19.828125 46.734375 
Q 21.96875 47.46875 24.109375 47.828125 
Q 26.265625 48.1875 28.421875 48.1875 
Q 40.625 48.1875 47.75 41.5 
Q 54.890625 34.8125 54.890625 23.390625 
Q 54.890625 11.625 47.5625 5.09375 
Q 40.234375 -1.421875 26.90625 -1.421875 
Q 22.3125 -1.421875 17.546875 -0.640625 
Q 12.796875 0.140625 7.71875 1.703125 
L 7.71875 11.625 
Q 12.109375 9.234375 16.796875 8.0625 
Q 21.484375 6.890625 26.703125 6.890625 
Q 35.15625 6.890625 40.078125 11.328125 
Q 45.015625 15.765625 45.015625 23.390625 
Q 45.015625 31 40.078125 35.4375 
Q 35.15625 39.890625 26.703125 39.890625 
Q 22.75 39.890625 18.8125 39.015625 
Q 14.890625 38.140625 10.796875 36.28125 
z
" id="DejaVuSans-53"/>
      </defs>
      <g transform="translate(186.672647 322.182437)scale(0.1 -0.1)">
       <use xlink:href="#DejaVuSans-50"/>
       <use x="63.623047" xlink:href="#DejaVuSans-48"/>
       <use x="127.246094" xlink:href="#DejaVuSans-49"/>
       <use x="190.869141" xlink:href="#DejaVuSans-53"/>
      </g>
     </g>
    </g>
    <g id="xtick_4">
     <g id="line2d_4">
      <g>
       <use style="stroke:#000000;stroke-width:0.8;" x="262.418824" xlink:href="#m8c8633e7f2" y="307.584"/>
      </g>
     </g>
     <g id="text_4">
      <!-- 2016 -->
      <defs>
       <path d="M 33.015625 40.375 
Q 26.375 40.375 22.484375 35.828125 
Q 18.609375 31.296875 18.609375 23.390625 
Q 18.609375 15.53125 22.484375 10.953125 
Q 26.375 6.390625 33.015625 6.390625 
Q 39.65625 6.390625 43.53125 10.953125 
Q 47.40625 15.53125 47.40625 23.390625 
Q 47.40625 31.296875 43.53125 35.828125 
Q 39.65625 40.375 33.015625 40.375 
z
M 52.59375 71.296875 
L 52.59375 62.3125 
Q 48.875 64.0625 45.09375 64.984375 
Q 41.3125 65.921875 37.59375 65.921875 
Q 27.828125 65.921875 22.671875 59.328125 
Q 17.53125 52.734375 16.796875 39.40625 
Q 19.671875 43.65625 24.015625 45.921875 
Q 28.375 48.1875 33.59375 48.1875 
Q 44.578125 48.1875 50.953125 41.515625 
Q 57.328125 34.859375 57.328125 23.390625 
Q 57.328125 12.15625 50.6875 5.359375 
Q 44.046875 -1.421875 33.015625 -1.421875 
Q 20.359375 -1.421875 13.671875 8.265625 
Q 6.984375 17.96875 6.984375 36.375 
Q 6.984375 53.65625 15.1875 63.9375 
Q 23.390625 74.21875 37.203125 74.21875 
Q 40.921875 74.21875 44.703125 73.484375 
Q 48.484375 72.75 52.59375 71.296875 
z
" id="DejaVuSans-54"/>
      </defs>
      <g transform="translate(249.693824 322.182437)scale(0.1 -0.1)">
       <use xlink:href="#DejaVuSans-50"/>
       <use x="63.623047" xlink:href="#DejaVuSans-48"/>
       <use x="127.246094" xlink:href="#DejaVuSans-49"/>
       <use x="190.869141" xlink:href="#DejaVuSans-54"/>
      </g>
     </g>
    </g>
    <g id="xtick_5">
     <g id="line2d_5">
      <g>
       <use style="stroke:#000000;stroke-width:0.8;" x="325.44" xlink:href="#m8c8633e7f2" y="307.584"/>
      </g>
     </g>
     <g id="text_5">
      <!-- 2017 -->
      <defs>
       <path d="M 8.203125 72.90625 
L 55.078125 72.90625 
L 55.078125 68.703125 
L 28.609375 0 
L 18.3125 0 
L 43.21875 64.59375 
L 8.203125 64.59375 
z
" id="DejaVuSans-55"/>
      </defs>
      <g transform="translate(312.715 322.182437)scale(0.1 -0.1)">
       <use xlink:href="#DejaVuSans-50"/>
       <use x="63.623047" xlink:href="#DejaVuSans-48"/>
       <use x="127.246094" xlink:href="#DejaVuSans-49"/>
       <use x="190.869141" xlink:href="#DejaVuSans-55"/>
      </g>
     </g>
    </g>
    <g id="xtick_6">
     <g id="line2d_6">
      <g>
       <use style="stroke:#000000;stroke-width:0.8;" x="388.461176" xlink:href="#m8c8633e7f2" y="307.584"/>
      </g>
     </g>
     <g id="text_6">
      <!-- 2018 -->
      <defs>
       <path d="M 31.78125 34.625 
Q 24.75 34.625 20.71875 30.859375 
Q 16.703125 27.09375 16.703125 20.515625 
Q 16.703125 13.921875 20.71875 10.15625 
Q 24.75 6.390625 31.78125 6.390625 
Q 38.8125 6.390625 42.859375 10.171875 
Q 46.921875 13.96875 46.921875 20.515625 
Q 46.921875 27.09375 42.890625 30.859375 
Q 38.875 34.625 31.78125 34.625 
z
M 21.921875 38.8125 
Q 15.578125 40.375 12.03125 44.71875 
Q 8.5 49.078125 8.5 55.328125 
Q 8.5 64.0625 14.71875 69.140625 
Q 20.953125 74.21875 31.78125 74.21875 
Q 42.671875 74.21875 48.875 69.140625 
Q 55.078125 64.0625 55.078125 55.328125 
Q 55.078125 49.078125 51.53125 44.71875 
Q 48 40.375 41.703125 38.8125 
Q 48.828125 37.15625 52.796875 32.3125 
Q 56.78125 27.484375 56.78125 20.515625 
Q 56.78125 9.90625 50.3125 4.234375 
Q 43.84375 -1.421875 31.78125 -1.421875 
Q 19.734375 -1.421875 13.25 4.234375 
Q 6.78125 9.90625 6.78125 20.515625 
Q 6.78125 27.484375 10.78125 32.3125 
Q 14.796875 37.15625 21.921875 38.8125 
z
M 18.3125 54.390625 
Q 18.3125 48.734375 21.84375 45.5625 
Q 25.390625 42.390625 31.78125 42.390625 
Q 38.140625 42.390625 41.71875 45.5625 
Q 45.3125 48.734375 45.3125 54.390625 
Q 45.3125 60.0625 41.71875 63.234375 
Q 38.140625 66.40625 31.78125 66.40625 
Q 25.390625 66.40625 21.84375 63.234375 
Q 18.3125 60.0625 18.3125 54.390625 
z
" id="DejaVuSans-56"/>
      </defs>
      <g transform="translate(375.736176 322.182437)scale(0.1 -0.1)">
       <use xlink:href="#DejaVuSans-50"/>
       <use x="63.623047" xlink:href="#DejaVuSans-48"/>
       <use x="127.246094" xlink:href="#DejaVuSans-49"/>
       <use x="190.869141" xlink:href="#DejaVuSans-56"/>
      </g>
     </g>
    </g>
    <g id="text_7">
     <!-- Date of crawl -->
     <defs>
      <path d="M 19.671875 64.796875 
L 19.671875 8.109375 
L 31.59375 8.109375 
Q 46.6875 8.109375 53.6875 14.9375 
Q 60.6875 21.78125 60.6875 36.53125 
Q 60.6875 51.171875 53.6875 57.984375 
Q 46.6875 64.796875 31.59375 64.796875 
z
M 9.8125 72.90625 
L 30.078125 72.90625 
Q 51.265625 72.90625 61.171875 64.09375 
Q 71.09375 55.28125 71.09375 36.53125 
Q 71.09375 17.671875 61.125 8.828125 
Q 51.171875 0 30.078125 0 
L 9.8125 0 
z
" id="DejaVuSans-68"/>
      <path d="M 34.28125 27.484375 
Q 23.390625 27.484375 19.1875 25 
Q 14.984375 22.515625 14.984375 16.5 
Q 14.984375 11.71875 18.140625 8.90625 
Q 21.296875 6.109375 26.703125 6.109375 
Q 34.1875 6.109375 38.703125 11.40625 
Q 43.21875 16.703125 43.21875 25.484375 
L 43.21875 27.484375 
z
M 52.203125 31.203125 
L 52.203125 0 
L 43.21875 0 
L 43.21875 8.296875 
Q 40.140625 3.328125 35.546875 0.953125 
Q 30.953125 -1.421875 24.3125 -1.421875 
Q 15.921875 -1.421875 10.953125 3.296875 
Q 6 8.015625 6 15.921875 
Q 6 25.140625 12.171875 29.828125 
Q 18.359375 34.515625 30.609375 34.515625 
L 43.21875 34.515625 
L 43.21875 35.40625 
Q 43.21875 41.609375 39.140625 45 
Q 35.0625 48.390625 27.6875 48.390625 
Q 23 48.390625 18.546875 47.265625 
Q 14.109375 46.140625 10.015625 43.890625 
L 10.015625 52.203125 
Q 14.9375 54.109375 19.578125 55.046875 
Q 24.21875 56 28.609375 56 
Q 40.484375 56 46.34375 49.84375 
Q 52.203125 43.703125 52.203125 31.203125 
z
" id="DejaVuSans-97"/>
      <path d="M 18.3125 70.21875 
L 18.3125 54.6875 
L 36.8125 54.6875 
L 36.8125 47.703125 
L 18.3125 47.703125 
L 18.3125 18.015625 
Q 18.3125 11.328125 20.140625 9.421875 
Q 21.96875 7.515625 27.59375 7.515625 
L 36.8125 7.515625 
L 36.8125 0 
L 27.59375 0 
Q 17.1875 0 13.234375 3.875 
Q 9.28125 7.765625 9.28125 18.015625 
L 9.28125 47.703125 
L 2.6875 47.703125 
L 2.6875 54.6875 
L 9.28125 54.6875 
L 9.28125 70.21875 
z
" id="DejaVuSans-116"/>
      <path d="M 56.203125 29.59375 
L 56.203125 25.203125 
L 14.890625 25.203125 
Q 15.484375 15.921875 20.484375 11.0625 
Q 25.484375 6.203125 34.421875 6.203125 
Q 39.59375 6.203125 44.453125 7.46875 
Q 49.3125 8.734375 54.109375 11.28125 
L 54.109375 2.78125 
Q 49.265625 0.734375 44.1875 -0.34375 
Q 39.109375 -1.421875 33.890625 -1.421875 
Q 20.796875 -1.421875 13.15625 6.1875 
Q 5.515625 13.8125 5.515625 26.8125 
Q 5.515625 40.234375 12.765625 48.109375 
Q 20.015625 56 32.328125 56 
Q 43.359375 56 49.78125 48.890625 
Q 56.203125 41.796875 56.203125 29.59375 
z
M 47.21875 32.234375 
Q 47.125 39.59375 43.09375 43.984375 
Q 39.0625 48.390625 32.421875 48.390625 
Q 24.90625 48.390625 20.390625 44.140625 
Q 15.875 39.890625 15.1875 32.171875 
z
" id="DejaVuSans-101"/>
      <path id="DejaVuSans-32"/>
      <path d="M 30.609375 48.390625 
Q 23.390625 48.390625 19.1875 42.75 
Q 14.984375 37.109375 14.984375 27.296875 
Q 14.984375 17.484375 19.15625 11.84375 
Q 23.34375 6.203125 30.609375 6.203125 
Q 37.796875 6.203125 41.984375 11.859375 
Q 46.1875 17.53125 46.1875 27.296875 
Q 46.1875 37.015625 41.984375 42.703125 
Q 37.796875 48.390625 30.609375 48.390625 
z
M 30.609375 56 
Q 42.328125 56 49.015625 48.375 
Q 55.71875 40.765625 55.71875 27.296875 
Q 55.71875 13.875 49.015625 6.21875 
Q 42.328125 -1.421875 30.609375 -1.421875 
Q 18.84375 -1.421875 12.171875 6.21875 
Q 5.515625 13.875 5.515625 27.296875 
Q 5.515625 40.765625 12.171875 48.375 
Q 18.84375 56 30.609375 56 
z
" id="DejaVuSans-111"/>
      <path d="M 37.109375 75.984375 
L 37.109375 68.5 
L 28.515625 68.5 
Q 23.6875 68.5 21.796875 66.546875 
Q 19.921875 64.59375 19.921875 59.515625 
L 19.921875 54.6875 
L 34.71875 54.6875 
L 34.71875 47.703125 
L 19.921875 47.703125 
L 19.921875 0 
L 10.890625 0 
L 10.890625 47.703125 
L 2.296875 47.703125 
L 2.296875 54.6875 
L 10.890625 54.6875 
L 10.890625 58.5 
Q 10.890625 67.625 15.140625 71.796875 
Q 19.390625 75.984375 28.609375 75.984375 
z
" id="DejaVuSans-102"/>
      <path d="M 48.78125 52.59375 
L 48.78125 44.1875 
Q 44.96875 46.296875 41.140625 47.34375 
Q 37.3125 48.390625 33.40625 48.390625 
Q 24.65625 48.390625 19.8125 42.84375 
Q 14.984375 37.3125 14.984375 27.296875 
Q 14.984375 17.28125 19.8125 11.734375 
Q 24.65625 6.203125 33.40625 6.203125 
Q 37.3125 6.203125 41.140625 7.25 
Q 44.96875 8.296875 48.78125 10.40625 
L 48.78125 2.09375 
Q 45.015625 0.34375 40.984375 -0.53125 
Q 36.96875 -1.421875 32.421875 -1.421875 
Q 20.0625 -1.421875 12.78125 6.34375 
Q 5.515625 14.109375 5.515625 27.296875 
Q 5.515625 40.671875 12.859375 48.328125 
Q 20.21875 56 33.015625 56 
Q 37.15625 56 41.109375 55.140625 
Q 45.0625 54.296875 48.78125 52.59375 
z
" id="DejaVuSans-99"/>
      <path d="M 41.109375 46.296875 
Q 39.59375 47.171875 37.8125 47.578125 
Q 36.03125 48 33.890625 48 
Q 26.265625 48 22.1875 43.046875 
Q 18.109375 38.09375 18.109375 28.8125 
L 18.109375 0 
L 9.078125 0 
L 9.078125 54.6875 
L 18.109375 54.6875 
L 18.109375 46.1875 
Q 20.953125 51.171875 25.484375 53.578125 
Q 30.03125 56 36.53125 56 
Q 37.453125 56 38.578125 55.875 
Q 39.703125 55.765625 41.0625 55.515625 
z
" id="DejaVuSans-114"/>
      <path d="M 4.203125 54.6875 
L 13.1875 54.6875 
L 24.421875 12.015625 
L 35.59375 54.6875 
L 46.1875 54.6875 
L 57.421875 12.015625 
L 68.609375 54.6875 
L 77.59375 54.6875 
L 63.28125 0 
L 52.6875 0 
L 40.921875 44.828125 
L 29.109375 0 
L 18.5 0 
z
" id="DejaVuSans-119"/>
      <path d="M 9.421875 75.984375 
L 18.40625 75.984375 
L 18.40625 0 
L 9.421875 0 
z
" id="DejaVuSans-108"/>
     </defs>
     <g transform="translate(202.864688 335.860562)scale(0.1 -0.1)">
      <use xlink:href="#DejaVuSans-68"/>
      <use x="77.001953" xlink:href="#DejaVuSans-97"/>
      <use x="138.28125" xlink:href="#DejaVuSans-116"/>
      <use x="177.490234" xlink:href="#DejaVuSans-101"/>
      <use x="239.013672" xlink:href="#DejaVuSans-32"/>
      <use x="270.800781" xlink:href="#DejaVuSans-111"/>
      <use x="331.982422" xlink:href="#DejaVuSans-102"/>
      <use x="367.1875" xlink:href="#DejaVuSans-32"/>
      <use x="398.974609" xlink:href="#DejaVuSans-99"/>
      <use x="453.955078" xlink:href="#DejaVuSans-114"/>
      <use x="495.068359" xlink:href="#DejaVuSans-97"/>
      <use x="556.347656" xlink:href="#DejaVuSans-119"/>
      <use x="638.134766" xlink:href="#DejaVuSans-108"/>
     </g>
    </g>
   </g>
   <g id="matplotlib.axis_2">
    <g id="ytick_1">
     <g id="line2d_7">
      <defs>
       <path d="M 0 0 
L -3.5 0 
" id="md39f5ad361" style="stroke:#000000;stroke-width:0.8;"/>
      </defs>
      <g>
       <use style="stroke:#000000;stroke-width:0.8;" x="57.6" xlink:href="#md39f5ad361" y="307.584"/>
      </g>
     </g>
     <g id="text_8">
      <!-- 0 -->
      <g transform="translate(44.2375 311.383219)scale(0.1 -0.1)">
       <use xlink:href="#DejaVuSans-48"/>
      </g>
     </g>
    </g>
    <g id="ytick_2">
     <g id="line2d_8">
      <g>
       <use style="stroke:#000000;stroke-width:0.8;" x="57.6" xlink:href="#md39f5ad361" y="255.154582"/>
      </g>
     </g>
     <g id="text_9">
      <!-- 100 -->
      <g transform="translate(31.5125 258.9538)scale(0.1 -0.1)">
       <use xlink:href="#DejaVuSans-49"/>
       <use x="63.623047" xlink:href="#DejaVuSans-48"/>
       <use x="127.246094" xlink:href="#DejaVuSans-48"/>
      </g>
     </g>
    </g>
    <g id="ytick_3">
     <g id="line2d_9">
      <g>
       <use style="stroke:#000000;stroke-width:0.8;" x="57.6" xlink:href="#md39f5ad361" y="202.725163"/>
      </g>
     </g>
     <g id="text_10">
      <!-- 200 -->
      <g transform="translate(31.5125 206.524382)scale(0.1 -0.1)">
       <use xlink:href="#DejaVuSans-50"/>
       <use x="63.623047" xlink:href="#DejaVuSans-48"/>
       <use x="127.246094" xlink:href="#DejaVuSans-48"/>
      </g>
     </g>
    </g>
    <g id="ytick_4">
     <g id="line2d_10">
      <g>
       <use style="stroke:#000000;stroke-width:0.8;" x="57.6" xlink:href="#md39f5ad361" y="150.295745"/>
      </g>
     </g>
     <g id="text_11">
      <!-- 300 -->
      <g transform="translate(31.5125 154.094963)scale(0.1 -0.1)">
       <use xlink:href="#DejaVuSans-51"/>
       <use x="63.623047" xlink:href="#DejaVuSans-48"/>
       <use x="127.246094" xlink:href="#DejaVuSans-48"/>
      </g>
     </g>
    </g>
    <g id="ytick_5">
     <g id="line2d_11">
      <g>
       <use style="stroke:#000000;stroke-width:0.8;" x="57.6" xlink:href="#md39f5ad361" y="97.866326"/>
      </g>
     </g>
     <g id="text_12">
      <!-- 400 -->
      <g transform="translate(31.5125 101.665545)scale(0.1 -0.1)">
       <use xlink:href="#DejaVuSans-52"/>
       <use x="63.623047" xlink:href="#DejaVuSans-48"/>
       <use x="127.246094" xlink:href="#DejaVuSans-48"/>
      </g>
     </g>
    </g>
    <g id="ytick_6">
     <g id="line2d_12">
      <g>
       <use style="stroke:#000000;stroke-width:0.8;" x="57.6" xlink:href="#md39f5ad361" y="45.436908"/>
      </g>
     </g>
     <g id="text_13">
      <!-- 500 -->
      <g transform="translate(31.5125 49.236126)scale(0.1 -0.1)">
       <use xlink:href="#DejaVuSans-53"/>
       <use x="63.623047" xlink:href="#DejaVuSans-48"/>
       <use x="127.246094" xlink:href="#DejaVuSans-48"/>
      </g>
     </g>
    </g>
    <g id="text_14">
     <!-- Records (in million) -->
     <defs>
      <path d="M 44.390625 34.1875 
Q 47.5625 33.109375 50.5625 29.59375 
Q 53.5625 26.078125 56.59375 19.921875 
L 66.609375 0 
L 56 0 
L 46.6875 18.703125 
Q 43.0625 26.03125 39.671875 28.421875 
Q 36.28125 30.8125 30.421875 30.8125 
L 19.671875 30.8125 
L 19.671875 0 
L 9.8125 0 
L 9.8125 72.90625 
L 32.078125 72.90625 
Q 44.578125 72.90625 50.734375 67.671875 
Q 56.890625 62.453125 56.890625 51.90625 
Q 56.890625 45.015625 53.6875 40.46875 
Q 50.484375 35.9375 44.390625 34.1875 
z
M 19.671875 64.796875 
L 19.671875 38.921875 
L 32.078125 38.921875 
Q 39.203125 38.921875 42.84375 42.21875 
Q 46.484375 45.515625 46.484375 51.90625 
Q 46.484375 58.296875 42.84375 61.546875 
Q 39.203125 64.796875 32.078125 64.796875 
z
" id="DejaVuSans-82"/>
      <path d="M 45.40625 46.390625 
L 45.40625 75.984375 
L 54.390625 75.984375 
L 54.390625 0 
L 45.40625 0 
L 45.40625 8.203125 
Q 42.578125 3.328125 38.25 0.953125 
Q 33.9375 -1.421875 27.875 -1.421875 
Q 17.96875 -1.421875 11.734375 6.484375 
Q 5.515625 14.40625 5.515625 27.296875 
Q 5.515625 40.1875 11.734375 48.09375 
Q 17.96875 56 27.875 56 
Q 33.9375 56 38.25 53.625 
Q 42.578125 51.265625 45.40625 46.390625 
z
M 14.796875 27.296875 
Q 14.796875 17.390625 18.875 11.75 
Q 22.953125 6.109375 30.078125 6.109375 
Q 37.203125 6.109375 41.296875 11.75 
Q 45.40625 17.390625 45.40625 27.296875 
Q 45.40625 37.203125 41.296875 42.84375 
Q 37.203125 48.484375 30.078125 48.484375 
Q 22.953125 48.484375 18.875 42.84375 
Q 14.796875 37.203125 14.796875 27.296875 
z
" id="DejaVuSans-100"/>
      <path d="M 44.28125 53.078125 
L 44.28125 44.578125 
Q 40.484375 46.53125 36.375 47.5 
Q 32.28125 48.484375 27.875 48.484375 
Q 21.1875 48.484375 17.84375 46.4375 
Q 14.5 44.390625 14.5 40.28125 
Q 14.5 37.15625 16.890625 35.375 
Q 19.28125 33.59375 26.515625 31.984375 
L 29.59375 31.296875 
Q 39.15625 29.25 43.1875 25.515625 
Q 47.21875 21.78125 47.21875 15.09375 
Q 47.21875 7.46875 41.1875 3.015625 
Q 35.15625 -1.421875 24.609375 -1.421875 
Q 20.21875 -1.421875 15.453125 -0.5625 
Q 10.6875 0.296875 5.421875 2 
L 5.421875 11.28125 
Q 10.40625 8.6875 15.234375 7.390625 
Q 20.0625 6.109375 24.8125 6.109375 
Q 31.15625 6.109375 34.5625 8.28125 
Q 37.984375 10.453125 37.984375 14.40625 
Q 37.984375 18.0625 35.515625 20.015625 
Q 33.0625 21.96875 24.703125 23.78125 
L 21.578125 24.515625 
Q 13.234375 26.265625 9.515625 29.90625 
Q 5.8125 33.546875 5.8125 39.890625 
Q 5.8125 47.609375 11.28125 51.796875 
Q 16.75 56 26.8125 56 
Q 31.78125 56 36.171875 55.265625 
Q 40.578125 54.546875 44.28125 53.078125 
z
" id="DejaVuSans-115"/>
      <path d="M 31 75.875 
Q 24.46875 64.65625 21.28125 53.65625 
Q 18.109375 42.671875 18.109375 31.390625 
Q 18.109375 20.125 21.3125 9.0625 
Q 24.515625 -2 31 -13.1875 
L 23.1875 -13.1875 
Q 15.875 -1.703125 12.234375 9.375 
Q 8.59375 20.453125 8.59375 31.390625 
Q 8.59375 42.28125 12.203125 53.3125 
Q 15.828125 64.359375 23.1875 75.875 
z
" id="DejaVuSans-40"/>
      <path d="M 9.421875 54.6875 
L 18.40625 54.6875 
L 18.40625 0 
L 9.421875 0 
z
M 9.421875 75.984375 
L 18.40625 75.984375 
L 18.40625 64.59375 
L 9.421875 64.59375 
z
" id="DejaVuSans-105"/>
      <path d="M 54.890625 33.015625 
L 54.890625 0 
L 45.90625 0 
L 45.90625 32.71875 
Q 45.90625 40.484375 42.875 44.328125 
Q 39.84375 48.1875 33.796875 48.1875 
Q 26.515625 48.1875 22.3125 43.546875 
Q 18.109375 38.921875 18.109375 30.90625 
L 18.109375 0 
L 9.078125 0 
L 9.078125 54.6875 
L 18.109375 54.6875 
L 18.109375 46.1875 
Q 21.34375 51.125 25.703125 53.5625 
Q 30.078125 56 35.796875 56 
Q 45.21875 56 50.046875 50.171875 
Q 54.890625 44.34375 54.890625 33.015625 
z
" id="DejaVuSans-110"/>
      <path d="M 52 44.1875 
Q 55.375 50.25 60.0625 53.125 
Q 64.75 56 71.09375 56 
Q 79.640625 56 84.28125 50.015625 
Q 88.921875 44.046875 88.921875 33.015625 
L 88.921875 0 
L 79.890625 0 
L 79.890625 32.71875 
Q 79.890625 40.578125 77.09375 44.375 
Q 74.3125 48.1875 68.609375 48.1875 
Q 61.625 48.1875 57.5625 43.546875 
Q 53.515625 38.921875 53.515625 30.90625 
L 53.515625 0 
L 44.484375 0 
L 44.484375 32.71875 
Q 44.484375 40.625 41.703125 44.40625 
Q 38.921875 48.1875 33.109375 48.1875 
Q 26.21875 48.1875 22.15625 43.53125 
Q 18.109375 38.875 18.109375 30.90625 
L 18.109375 0 
L 9.078125 0 
L 9.078125 54.6875 
L 18.109375 54.6875 
L 18.109375 46.1875 
Q 21.1875 51.21875 25.484375 53.609375 
Q 29.78125 56 35.6875 56 
Q 41.65625 56 45.828125 52.96875 
Q 50 49.953125 52 44.1875 
z
" id="DejaVuSans-109"/>
      <path d="M 8.015625 75.875 
L 15.828125 75.875 
Q 23.140625 64.359375 26.78125 53.3125 
Q 30.421875 42.28125 30.421875 31.390625 
Q 30.421875 20.453125 26.78125 9.375 
Q 23.140625 -1.703125 15.828125 -13.1875 
L 8.015625 -13.1875 
Q 14.5 -2 17.703125 9.0625 
Q 20.90625 20.125 20.90625 31.390625 
Q 20.90625 42.671875 17.703125 53.65625 
Q 14.5 64.65625 8.015625 75.875 
z
" id="DejaVuSans-41"/>
     </defs>
     <g transform="translate(25.432812 223.010031)rotate(-90)scale(0.1 -0.1)">
      <use xlink:href="#DejaVuSans-82"/>
      <use x="69.419922" xlink:href="#DejaVuSans-101"/>
      <use x="130.943359" xlink:href="#DejaVuSans-99"/>
      <use x="185.923828" xlink:href="#DejaVuSans-111"/>
      <use x="247.105469" xlink:href="#DejaVuSans-114"/>
      <use x="288.203125" xlink:href="#DejaVuSans-100"/>
      <use x="351.679688" xlink:href="#DejaVuSans-115"/>
      <use x="403.779297" xlink:href="#DejaVuSans-32"/>
      <use x="435.566406" xlink:href="#DejaVuSans-40"/>
      <use x="474.580078" xlink:href="#DejaVuSans-105"/>
      <use x="502.363281" xlink:href="#DejaVuSans-110"/>
      <use x="565.742188" xlink:href="#DejaVuSans-32"/>
      <use x="597.529297" xlink:href="#DejaVuSans-109"/>
      <use x="694.941406" xlink:href="#DejaVuSans-105"/>
      <use x="722.724609" xlink:href="#DejaVuSans-108"/>
      <use x="750.507812" xlink:href="#DejaVuSans-108"/>
      <use x="778.291016" xlink:href="#DejaVuSans-105"/>
      <use x="806.074219" xlink:href="#DejaVuSans-111"/>
      <use x="867.255859" xlink:href="#DejaVuSans-110"/>
      <use x="930.634766" xlink:href="#DejaVuSans-41"/>
     </g>
    </g>
   </g>
   <g id="patch_3">
    <path d="M 57.6 307.584 
L 57.6 41.472 
" style="fill:none;stroke:#000000;stroke-linecap:square;stroke-linejoin:miter;stroke-width:0.8;"/>
   </g>
   <g id="legend_1">
    <g id="patch_4">
     <path d="M 220.435625 302.584 
L 407.72 302.584 
Q 409.72 302.584 409.72 300.584 
L 409.72 154.80275 
Q 409.72 152.80275 407.72 152.80275 
L 220.435625 152.80275 
Q 218.435625 152.80275 218.435625 154.80275 
L 218.435625 300.584 
Q 218.435625 302.584 220.435625 302.584 
z
" style="fill:#ffffff;opacity:0.8;stroke:#cccccc;stroke-linejoin:miter;"/>
    </g>
    <g id="patch_5">
     <path d="M 222.435625 164.401187 
L 242.435625 164.401187 
L 242.435625 157.401187 
L 222.435625 157.401187 
z
" style="fill:#1f77b4;"/>
    </g>
    <g id="text_15">
     <!-- application/pdf -->
     <defs>
      <path d="M 18.109375 8.203125 
L 18.109375 -20.796875 
L 9.078125 -20.796875 
L 9.078125 54.6875 
L 18.109375 54.6875 
L 18.109375 46.390625 
Q 20.953125 51.265625 25.265625 53.625 
Q 29.59375 56 35.59375 56 
Q 45.5625 56 51.78125 48.09375 
Q 58.015625 40.1875 58.015625 27.296875 
Q 58.015625 14.40625 51.78125 6.484375 
Q 45.5625 -1.421875 35.59375 -1.421875 
Q 29.59375 -1.421875 25.265625 0.953125 
Q 20.953125 3.328125 18.109375 8.203125 
z
M 48.6875 27.296875 
Q 48.6875 37.203125 44.609375 42.84375 
Q 40.53125 48.484375 33.40625 48.484375 
Q 26.265625 48.484375 22.1875 42.84375 
Q 18.109375 37.203125 18.109375 27.296875 
Q 18.109375 17.390625 22.1875 11.75 
Q 26.265625 6.109375 33.40625 6.109375 
Q 40.53125 6.109375 44.609375 11.75 
Q 48.6875 17.390625 48.6875 27.296875 
z
" id="DejaVuSans-112"/>
      <path d="M 25.390625 72.90625 
L 33.6875 72.90625 
L 8.296875 -9.28125 
L 0 -9.28125 
z
" id="DejaVuSans-47"/>
     </defs>
     <g transform="translate(250.435625 164.401187)scale(0.1 -0.1)">
      <use xlink:href="#DejaVuSans-97"/>
      <use x="61.279297" xlink:href="#DejaVuSans-112"/>
      <use x="124.755859" xlink:href="#DejaVuSans-112"/>
      <use x="188.232422" xlink:href="#DejaVuSans-108"/>
      <use x="216.015625" xlink:href="#DejaVuSans-105"/>
      <use x="243.798828" xlink:href="#DejaVuSans-99"/>
      <use x="298.779297" xlink:href="#DejaVuSans-97"/>
      <use x="360.058594" xlink:href="#DejaVuSans-116"/>
      <use x="399.267578" xlink:href="#DejaVuSans-105"/>
      <use x="427.050781" xlink:href="#DejaVuSans-111"/>
      <use x="488.232422" xlink:href="#DejaVuSans-110"/>
      <use x="551.611328" xlink:href="#DejaVuSans-47"/>
      <use x="585.302734" xlink:href="#DejaVuSans-112"/>
      <use x="648.779297" xlink:href="#DejaVuSans-100"/>
      <use x="712.255859" xlink:href="#DejaVuSans-102"/>
     </g>
    </g>
    <g id="patch_6">
     <path d="M 222.435625 179.079313 
L 242.435625 179.079313 
L 242.435625 172.079313 
L 222.435625 172.079313 
z
" style="fill:#ff7f0e;"/>
    </g>
    <g id="text_16">
     <!-- image/jpeg -->
     <defs>
      <path d="M 45.40625 27.984375 
Q 45.40625 37.75 41.375 43.109375 
Q 37.359375 48.484375 30.078125 48.484375 
Q 22.859375 48.484375 18.828125 43.109375 
Q 14.796875 37.75 14.796875 27.984375 
Q 14.796875 18.265625 18.828125 12.890625 
Q 22.859375 7.515625 30.078125 7.515625 
Q 37.359375 7.515625 41.375 12.890625 
Q 45.40625 18.265625 45.40625 27.984375 
z
M 54.390625 6.78125 
Q 54.390625 -7.171875 48.1875 -13.984375 
Q 42 -20.796875 29.203125 -20.796875 
Q 24.46875 -20.796875 20.265625 -20.09375 
Q 16.0625 -19.390625 12.109375 -17.921875 
L 12.109375 -9.1875 
Q 16.0625 -11.328125 19.921875 -12.34375 
Q 23.78125 -13.375 27.78125 -13.375 
Q 36.625 -13.375 41.015625 -8.765625 
Q 45.40625 -4.15625 45.40625 5.171875 
L 45.40625 9.625 
Q 42.625 4.78125 38.28125 2.390625 
Q 33.9375 0 27.875 0 
Q 17.828125 0 11.671875 7.65625 
Q 5.515625 15.328125 5.515625 27.984375 
Q 5.515625 40.671875 11.671875 48.328125 
Q 17.828125 56 27.875 56 
Q 33.9375 56 38.28125 53.609375 
Q 42.625 51.21875 45.40625 46.390625 
L 45.40625 54.6875 
L 54.390625 54.6875 
z
" id="DejaVuSans-103"/>
      <path d="M 9.421875 54.6875 
L 18.40625 54.6875 
L 18.40625 -0.984375 
Q 18.40625 -11.421875 14.421875 -16.109375 
Q 10.453125 -20.796875 1.609375 -20.796875 
L -1.8125 -20.796875 
L -1.8125 -13.1875 
L 0.59375 -13.1875 
Q 5.71875 -13.1875 7.5625 -10.8125 
Q 9.421875 -8.453125 9.421875 -0.984375 
z
M 9.421875 75.984375 
L 18.40625 75.984375 
L 18.40625 64.59375 
L 9.421875 64.59375 
z
" id="DejaVuSans-106"/>
     </defs>
     <g transform="translate(250.435625 179.079313)scale(0.1 -0.1)">
      <use xlink:href="#DejaVuSans-105"/>
      <use x="27.783203" xlink:href="#DejaVuSans-109"/>
      <use x="125.195312" xlink:href="#DejaVuSans-97"/>
      <use x="186.474609" xlink:href="#DejaVuSans-103"/>
      <use x="249.951172" xlink:href="#DejaVuSans-101"/>
      <use x="311.474609" xlink:href="#DejaVuSans-47"/>
      <use x="345.166016" xlink:href="#DejaVuSans-106"/>
      <use x="372.949219" xlink:href="#DejaVuSans-112"/>
      <use x="436.425781" xlink:href="#DejaVuSans-101"/>
      <use x="497.949219" xlink:href="#DejaVuSans-103"/>
     </g>
    </g>
    <g id="patch_7">
     <path d="M 222.435625 193.757438 
L 242.435625 193.757438 
L 242.435625 186.757438 
L 222.435625 186.757438 
z
" style="fill:#2ca02c;"/>
    </g>
    <g id="text_17">
     <!-- text/plain -->
     <defs>
      <path d="M 54.890625 54.6875 
L 35.109375 28.078125 
L 55.90625 0 
L 45.3125 0 
L 29.390625 21.484375 
L 13.484375 0 
L 2.875 0 
L 24.125 28.609375 
L 4.6875 54.6875 
L 15.28125 54.6875 
L 29.78125 35.203125 
L 44.28125 54.6875 
z
" id="DejaVuSans-120"/>
     </defs>
     <g transform="translate(250.435625 193.757438)scale(0.1 -0.1)">
      <use xlink:href="#DejaVuSans-116"/>
      <use x="39.208984" xlink:href="#DejaVuSans-101"/>
      <use x="100.716797" xlink:href="#DejaVuSans-120"/>
      <use x="159.896484" xlink:href="#DejaVuSans-116"/>
      <use x="199.105469" xlink:href="#DejaVuSans-47"/>
      <use x="232.796875" xlink:href="#DejaVuSans-112"/>
      <use x="296.273438" xlink:href="#DejaVuSans-108"/>
      <use x="324.056641" xlink:href="#DejaVuSans-97"/>
      <use x="385.335938" xlink:href="#DejaVuSans-105"/>
      <use x="413.119141" xlink:href="#DejaVuSans-110"/>
     </g>
    </g>
    <g id="patch_8">
     <path d="M 222.435625 208.435563 
L 242.435625 208.435563 
L 242.435625 201.435563 
L 222.435625 201.435563 
z
" style="fill:#d62728;"/>
    </g>
    <g id="text_18">
     <!-- text/html -->
     <defs>
      <path d="M 54.890625 33.015625 
L 54.890625 0 
L 45.90625 0 
L 45.90625 32.71875 
Q 45.90625 40.484375 42.875 44.328125 
Q 39.84375 48.1875 33.796875 48.1875 
Q 26.515625 48.1875 22.3125 43.546875 
Q 18.109375 38.921875 18.109375 30.90625 
L 18.109375 0 
L 9.078125 0 
L 9.078125 75.984375 
L 18.109375 75.984375 
L 18.109375 46.1875 
Q 21.34375 51.125 25.703125 53.5625 
Q 30.078125 56 35.796875 56 
Q 45.21875 56 50.046875 50.171875 
Q 54.890625 44.34375 54.890625 33.015625 
z
" id="DejaVuSans-104"/>
     </defs>
     <g transform="translate(250.435625 208.435563)scale(0.1 -0.1)">
      <use xlink:href="#DejaVuSans-116"/>
      <use x="39.208984" xlink:href="#DejaVuSans-101"/>
      <use x="100.716797" xlink:href="#DejaVuSans-120"/>
      <use x="159.896484" xlink:href="#DejaVuSans-116"/>
      <use x="199.105469" xlink:href="#DejaVuSans-47"/>
      <use x="232.796875" xlink:href="#DejaVuSans-104"/>
      <use x="296.175781" xlink:href="#DejaVuSans-116"/>
      <use x="335.384766" xlink:href="#DejaVuSans-109"/>
      <use x="432.796875" xlink:href="#DejaVuSans-108"/>
     </g>
    </g>
    <g id="patch_9">
     <path d="M 222.435625 223.113688 
L 242.435625 223.113688 
L 242.435625 216.113688 
L 222.435625 216.113688 
z
" style="fill:#9467bd;"/>
    </g>
    <g id="text_19">
     <!-- image/png -->
     <g transform="translate(250.435625 223.113688)scale(0.1 -0.1)">
      <use xlink:href="#DejaVuSans-105"/>
      <use x="27.783203" xlink:href="#DejaVuSans-109"/>
      <use x="125.195312" xlink:href="#DejaVuSans-97"/>
      <use x="186.474609" xlink:href="#DejaVuSans-103"/>
      <use x="249.951172" xlink:href="#DejaVuSans-101"/>
      <use x="311.474609" xlink:href="#DejaVuSans-47"/>
      <use x="345.166016" xlink:href="#DejaVuSans-112"/>
      <use x="408.642578" xlink:href="#DejaVuSans-110"/>
      <use x="472.021484" xlink:href="#DejaVuSans-103"/>
     </g>
    </g>
    <g id="patch_10">
     <path d="M 222.435625 237.791812 
L 242.435625 237.791812 
L 242.435625 230.791812 
L 222.435625 230.791812 
z
" style="fill:#8c564b;"/>
    </g>
    <g id="text_20">
     <!-- application/octet-stream -->
     <defs>
      <path d="M 4.890625 31.390625 
L 31.203125 31.390625 
L 31.203125 23.390625 
L 4.890625 23.390625 
z
" id="DejaVuSans-45"/>
     </defs>
     <g transform="translate(250.435625 237.791812)scale(0.1 -0.1)">
      <use xlink:href="#DejaVuSans-97"/>
      <use x="61.279297" xlink:href="#DejaVuSans-112"/>
      <use x="124.755859" xlink:href="#DejaVuSans-112"/>
      <use x="188.232422" xlink:href="#DejaVuSans-108"/>
      <use x="216.015625" xlink:href="#DejaVuSans-105"/>
      <use x="243.798828" xlink:href="#DejaVuSans-99"/>
      <use x="298.779297" xlink:href="#DejaVuSans-97"/>
      <use x="360.058594" xlink:href="#DejaVuSans-116"/>
      <use x="399.267578" xlink:href="#DejaVuSans-105"/>
      <use x="427.050781" xlink:href="#DejaVuSans-111"/>
      <use x="488.232422" xlink:href="#DejaVuSans-110"/>
      <use x="551.611328" xlink:href="#DejaVuSans-47"/>
      <use x="585.302734" xlink:href="#DejaVuSans-111"/>
      <use x="646.484375" xlink:href="#DejaVuSans-99"/>
      <use x="701.464844" xlink:href="#DejaVuSans-116"/>
      <use x="740.673828" xlink:href="#DejaVuSans-101"/>
      <use x="802.197266" xlink:href="#DejaVuSans-116"/>
      <use x="841.40625" xlink:href="#DejaVuSans-45"/>
      <use x="877.490234" xlink:href="#DejaVuSans-115"/>
      <use x="929.589844" xlink:href="#DejaVuSans-116"/>
      <use x="968.798828" xlink:href="#DejaVuSans-114"/>
      <use x="1009.880859" xlink:href="#DejaVuSans-101"/>
      <use x="1071.404297" xlink:href="#DejaVuSans-97"/>
      <use x="1132.683594" xlink:href="#DejaVuSans-109"/>
     </g>
    </g>
    <g id="patch_11">
     <path d="M 222.435625 252.469938 
L 242.435625 252.469938 
L 242.435625 245.469938 
L 222.435625 245.469938 
z
" style="fill:#e377c2;"/>
    </g>
    <g id="text_21">
     <!-- application/vnd.ms-powerpoint -->
     <defs>
      <path d="M 2.984375 54.6875 
L 12.5 54.6875 
L 29.59375 8.796875 
L 46.6875 54.6875 
L 56.203125 54.6875 
L 35.6875 0 
L 23.484375 0 
z
" id="DejaVuSans-118"/>
      <path d="M 10.6875 12.40625 
L 21 12.40625 
L 21 0 
L 10.6875 0 
z
" id="DejaVuSans-46"/>
     </defs>
     <g transform="translate(250.435625 252.469938)scale(0.1 -0.1)">
      <use xlink:href="#DejaVuSans-97"/>
      <use x="61.279297" xlink:href="#DejaVuSans-112"/>
      <use x="124.755859" xlink:href="#DejaVuSans-112"/>
      <use x="188.232422" xlink:href="#DejaVuSans-108"/>
      <use x="216.015625" xlink:href="#DejaVuSans-105"/>
      <use x="243.798828" xlink:href="#DejaVuSans-99"/>
      <use x="298.779297" xlink:href="#DejaVuSans-97"/>
      <use x="360.058594" xlink:href="#DejaVuSans-116"/>
      <use x="399.267578" xlink:href="#DejaVuSans-105"/>
      <use x="427.050781" xlink:href="#DejaVuSans-111"/>
      <use x="488.232422" xlink:href="#DejaVuSans-110"/>
      <use x="551.611328" xlink:href="#DejaVuSans-47"/>
      <use x="585.302734" xlink:href="#DejaVuSans-118"/>
      <use x="644.482422" xlink:href="#DejaVuSans-110"/>
      <use x="707.861328" xlink:href="#DejaVuSans-100"/>
      <use x="771.337891" xlink:href="#DejaVuSans-46"/>
      <use x="803.125" xlink:href="#DejaVuSans-109"/>
      <use x="900.537109" xlink:href="#DejaVuSans-115"/>
      <use x="952.636719" xlink:href="#DejaVuSans-45"/>
      <use x="988.720703" xlink:href="#DejaVuSans-112"/>
      <use x="1052.197266" xlink:href="#DejaVuSans-111"/>
      <use x="1113.378906" xlink:href="#DejaVuSans-119"/>
      <use x="1195.166016" xlink:href="#DejaVuSans-101"/>
      <use x="1256.689453" xlink:href="#DejaVuSans-114"/>
      <use x="1297.802734" xlink:href="#DejaVuSans-112"/>
      <use x="1361.279297" xlink:href="#DejaVuSans-111"/>
      <use x="1422.460938" xlink:href="#DejaVuSans-105"/>
      <use x="1450.244141" xlink:href="#DejaVuSans-110"/>
      <use x="1513.623047" xlink:href="#DejaVuSans-116"/>
     </g>
    </g>
    <g id="patch_12">
     <path d="M 222.435625 267.148062 
L 242.435625 267.148062 
L 242.435625 260.148062 
L 222.435625 260.148062 
z
" style="fill:#7f7f7f;"/>
    </g>
    <g id="text_22">
     <!-- video/mp4 -->
     <g transform="translate(250.435625 267.148062)scale(0.1 -0.1)">
      <use xlink:href="#DejaVuSans-118"/>
      <use x="59.179688" xlink:href="#DejaVuSans-105"/>
      <use x="86.962891" xlink:href="#DejaVuSans-100"/>
      <use x="150.439453" xlink:href="#DejaVuSans-101"/>
      <use x="211.962891" xlink:href="#DejaVuSans-111"/>
      <use x="273.144531" xlink:href="#DejaVuSans-47"/>
      <use x="306.835938" xlink:href="#DejaVuSans-109"/>
      <use x="404.248047" xlink:href="#DejaVuSans-112"/>
      <use x="467.724609" xlink:href="#DejaVuSans-52"/>
     </g>
    </g>
    <g id="patch_13">
     <path d="M 222.435625 281.826188 
L 242.435625 281.826188 
L 242.435625 274.826188 
L 222.435625 274.826188 
z
" style="fill:#bcbd22;"/>
    </g>
    <g id="text_23">
     <!-- image/gif -->
     <g transform="translate(250.435625 281.826188)scale(0.1 -0.1)">
      <use xlink:href="#DejaVuSans-105"/>
      <use x="27.783203" xlink:href="#DejaVuSans-109"/>
      <use x="125.195312" xlink:href="#DejaVuSans-97"/>
      <use x="186.474609" xlink:href="#DejaVuSans-103"/>
      <use x="249.951172" xlink:href="#DejaVuSans-101"/>
      <use x="311.474609" xlink:href="#DejaVuSans-47"/>
      <use x="345.166016" xlink:href="#DejaVuSans-103"/>
      <use x="408.642578" xlink:href="#DejaVuSans-105"/>
      <use x="436.425781" xlink:href="#DejaVuSans-102"/>
     </g>
    </g>
    <g id="patch_14">
     <path d="M 222.435625 296.504312 
L 242.435625 296.504312 
L 242.435625 289.504312 
L 222.435625 289.504312 
z
" style="fill:#17becf;"/>
    </g>
    <g id="text_24">
     <!-- other -->
     <g transform="translate(250.435625 296.504312)scale(0.1 -0.1)">
      <use xlink:href="#DejaVuSans-111"/>
      <use x="61.181641" xlink:href="#DejaVuSans-116"/>
      <use x="100.390625" xlink:href="#DejaVuSans-104"/>
      <use x="163.769531" xlink:href="#DejaVuSans-101"/>
      <use x="225.292969" xlink:href="#DejaVuSans-114"/>
     </g>
    </g>
   </g>
  </g>
 </g>
 <defs>
  <clipPath id="p7cd6c4b95d">
   <rect height="266.112" width="357.12" x="57.6" y="41.472"/>
  </clipPath>
 </defs>
</svg>
